G04 #@! TF.GenerationSoftware,KiCad,Pcbnew,5.1.4*
G04 #@! TF.CreationDate,2019-09-18T22:14:05+02:00*
G04 #@! TF.ProjectId,crf_bokmassabot,6372665f-626f-46b6-9d61-737361626f74,rev?*
G04 #@! TF.SameCoordinates,Original*
G04 #@! TF.FileFunction,Soldermask,Top*
G04 #@! TF.FilePolarity,Negative*
%FSLAX46Y46*%
G04 Gerber Fmt 4.6, Leading zero omitted, Abs format (unit mm)*
G04 Created by KiCad (PCBNEW 5.1.4) date 2019-09-18 22:14:05*
%MOMM*%
%LPD*%
G04 APERTURE LIST*
%ADD10C,0.100000*%
G04 APERTURE END LIST*
D10*
G36*
X191901000Y-122901000D02*
G01*
X190099000Y-122901000D01*
X190099000Y-121099000D01*
X191901000Y-121099000D01*
X191901000Y-122901000D01*
X191901000Y-122901000D01*
G37*
G36*
X160901000Y-122901000D02*
G01*
X159099000Y-122901000D01*
X159099000Y-121099000D01*
X160901000Y-121099000D01*
X160901000Y-122901000D01*
X160901000Y-122901000D01*
G37*
G36*
X183344917Y-119000000D02*
G01*
X182000000Y-120344917D01*
X180655083Y-119000000D01*
X182000000Y-117655083D01*
X183344917Y-119000000D01*
X183344917Y-119000000D01*
G37*
G36*
X201344917Y-119000000D02*
G01*
X200000000Y-120344917D01*
X198655083Y-119000000D01*
X200000000Y-117655083D01*
X201344917Y-119000000D01*
X201344917Y-119000000D01*
G37*
G36*
X162601000Y-118901000D02*
G01*
X157399000Y-118901000D01*
X157399000Y-116299000D01*
X162601000Y-116299000D01*
X162601000Y-118901000D01*
X162601000Y-118901000D01*
G37*
G36*
X184073446Y-116289495D02*
G01*
X184246517Y-116361183D01*
X184246518Y-116361184D01*
X184402278Y-116465259D01*
X184534741Y-116597722D01*
X184534742Y-116597724D01*
X184638817Y-116753483D01*
X184710505Y-116926554D01*
X184747051Y-117110282D01*
X184747051Y-117297616D01*
X184710505Y-117481344D01*
X184638817Y-117654415D01*
X184638370Y-117655084D01*
X184534741Y-117810176D01*
X184402278Y-117942639D01*
X184323869Y-117995030D01*
X184246517Y-118046715D01*
X184073446Y-118118403D01*
X183889718Y-118154949D01*
X183702384Y-118154949D01*
X183518656Y-118118403D01*
X183345585Y-118046715D01*
X183268233Y-117995030D01*
X183189824Y-117942639D01*
X183057361Y-117810176D01*
X182953732Y-117655084D01*
X182953285Y-117654415D01*
X182881597Y-117481344D01*
X182845051Y-117297616D01*
X182845051Y-117110282D01*
X182881597Y-116926554D01*
X182953285Y-116753483D01*
X183057360Y-116597724D01*
X183057361Y-116597722D01*
X183189824Y-116465259D01*
X183345584Y-116361184D01*
X183345585Y-116361183D01*
X183518656Y-116289495D01*
X183702384Y-116252949D01*
X183889718Y-116252949D01*
X184073446Y-116289495D01*
X184073446Y-116289495D01*
G37*
G36*
X198481344Y-116289495D02*
G01*
X198654415Y-116361183D01*
X198654416Y-116361184D01*
X198810176Y-116465259D01*
X198942639Y-116597722D01*
X198942640Y-116597724D01*
X199046715Y-116753483D01*
X199118403Y-116926554D01*
X199154949Y-117110282D01*
X199154949Y-117297616D01*
X199118403Y-117481344D01*
X199046715Y-117654415D01*
X199046268Y-117655084D01*
X198942639Y-117810176D01*
X198810176Y-117942639D01*
X198731767Y-117995030D01*
X198654415Y-118046715D01*
X198481344Y-118118403D01*
X198297616Y-118154949D01*
X198110282Y-118154949D01*
X197926554Y-118118403D01*
X197753483Y-118046715D01*
X197676131Y-117995030D01*
X197597722Y-117942639D01*
X197465259Y-117810176D01*
X197361630Y-117655084D01*
X197361183Y-117654415D01*
X197289495Y-117481344D01*
X197252949Y-117297616D01*
X197252949Y-117110282D01*
X197289495Y-116926554D01*
X197361183Y-116753483D01*
X197465258Y-116597724D01*
X197465259Y-116597722D01*
X197597722Y-116465259D01*
X197753482Y-116361184D01*
X197753483Y-116361183D01*
X197926554Y-116289495D01*
X198110282Y-116252949D01*
X198297616Y-116252949D01*
X198481344Y-116289495D01*
X198481344Y-116289495D01*
G37*
G36*
X187554591Y-116478085D02*
G01*
X187588569Y-116488393D01*
X187619890Y-116505134D01*
X187647339Y-116527661D01*
X187669866Y-116555110D01*
X187686607Y-116586431D01*
X187696915Y-116620409D01*
X187701000Y-116661890D01*
X187701000Y-117338110D01*
X187696915Y-117379591D01*
X187686607Y-117413569D01*
X187669866Y-117444890D01*
X187647339Y-117472339D01*
X187619890Y-117494866D01*
X187588569Y-117511607D01*
X187554591Y-117521915D01*
X187513110Y-117526000D01*
X186911890Y-117526000D01*
X186870409Y-117521915D01*
X186836431Y-117511607D01*
X186805110Y-117494866D01*
X186777661Y-117472339D01*
X186755134Y-117444890D01*
X186738393Y-117413569D01*
X186728085Y-117379591D01*
X186724000Y-117338110D01*
X186724000Y-116661890D01*
X186728085Y-116620409D01*
X186738393Y-116586431D01*
X186755134Y-116555110D01*
X186777661Y-116527661D01*
X186805110Y-116505134D01*
X186836431Y-116488393D01*
X186870409Y-116478085D01*
X186911890Y-116474000D01*
X187513110Y-116474000D01*
X187554591Y-116478085D01*
X187554591Y-116478085D01*
G37*
G36*
X189129591Y-116478085D02*
G01*
X189163569Y-116488393D01*
X189194890Y-116505134D01*
X189222339Y-116527661D01*
X189244866Y-116555110D01*
X189261607Y-116586431D01*
X189271915Y-116620409D01*
X189276000Y-116661890D01*
X189276000Y-117338110D01*
X189271915Y-117379591D01*
X189261607Y-117413569D01*
X189244866Y-117444890D01*
X189222339Y-117472339D01*
X189194890Y-117494866D01*
X189163569Y-117511607D01*
X189129591Y-117521915D01*
X189088110Y-117526000D01*
X188486890Y-117526000D01*
X188445409Y-117521915D01*
X188411431Y-117511607D01*
X188380110Y-117494866D01*
X188352661Y-117472339D01*
X188330134Y-117444890D01*
X188313393Y-117413569D01*
X188303085Y-117379591D01*
X188299000Y-117338110D01*
X188299000Y-116661890D01*
X188303085Y-116620409D01*
X188313393Y-116586431D01*
X188330134Y-116555110D01*
X188352661Y-116527661D01*
X188380110Y-116505134D01*
X188411431Y-116488393D01*
X188445409Y-116478085D01*
X188486890Y-116474000D01*
X189088110Y-116474000D01*
X189129591Y-116478085D01*
X189129591Y-116478085D01*
G37*
G36*
X195129591Y-116478085D02*
G01*
X195163569Y-116488393D01*
X195194890Y-116505134D01*
X195222339Y-116527661D01*
X195244866Y-116555110D01*
X195261607Y-116586431D01*
X195271915Y-116620409D01*
X195276000Y-116661890D01*
X195276000Y-117338110D01*
X195271915Y-117379591D01*
X195261607Y-117413569D01*
X195244866Y-117444890D01*
X195222339Y-117472339D01*
X195194890Y-117494866D01*
X195163569Y-117511607D01*
X195129591Y-117521915D01*
X195088110Y-117526000D01*
X194486890Y-117526000D01*
X194445409Y-117521915D01*
X194411431Y-117511607D01*
X194380110Y-117494866D01*
X194352661Y-117472339D01*
X194330134Y-117444890D01*
X194313393Y-117413569D01*
X194303085Y-117379591D01*
X194299000Y-117338110D01*
X194299000Y-116661890D01*
X194303085Y-116620409D01*
X194313393Y-116586431D01*
X194330134Y-116555110D01*
X194352661Y-116527661D01*
X194380110Y-116505134D01*
X194411431Y-116488393D01*
X194445409Y-116478085D01*
X194486890Y-116474000D01*
X195088110Y-116474000D01*
X195129591Y-116478085D01*
X195129591Y-116478085D01*
G37*
G36*
X193554591Y-116478085D02*
G01*
X193588569Y-116488393D01*
X193619890Y-116505134D01*
X193647339Y-116527661D01*
X193669866Y-116555110D01*
X193686607Y-116586431D01*
X193696915Y-116620409D01*
X193701000Y-116661890D01*
X193701000Y-117338110D01*
X193696915Y-117379591D01*
X193686607Y-117413569D01*
X193669866Y-117444890D01*
X193647339Y-117472339D01*
X193619890Y-117494866D01*
X193588569Y-117511607D01*
X193554591Y-117521915D01*
X193513110Y-117526000D01*
X192911890Y-117526000D01*
X192870409Y-117521915D01*
X192836431Y-117511607D01*
X192805110Y-117494866D01*
X192777661Y-117472339D01*
X192755134Y-117444890D01*
X192738393Y-117413569D01*
X192728085Y-117379591D01*
X192724000Y-117338110D01*
X192724000Y-116661890D01*
X192728085Y-116620409D01*
X192738393Y-116586431D01*
X192755134Y-116555110D01*
X192777661Y-116527661D01*
X192805110Y-116505134D01*
X192836431Y-116488393D01*
X192870409Y-116478085D01*
X192911890Y-116474000D01*
X193513110Y-116474000D01*
X193554591Y-116478085D01*
X193554591Y-116478085D01*
G37*
G36*
X161502490Y-105046950D02*
G01*
X162051620Y-105274407D01*
X162439913Y-105435243D01*
X163283571Y-105998957D01*
X164001043Y-106716429D01*
X164564757Y-107560087D01*
X164564757Y-107560088D01*
X164953050Y-108497510D01*
X165151000Y-109492669D01*
X165151000Y-110507331D01*
X164953050Y-111502490D01*
X164725593Y-112051620D01*
X164564757Y-112439913D01*
X164001043Y-113283571D01*
X163283571Y-114001043D01*
X162439913Y-114564757D01*
X162051620Y-114725593D01*
X161502490Y-114953050D01*
X160507331Y-115151000D01*
X159492669Y-115151000D01*
X158497510Y-114953050D01*
X157948380Y-114725593D01*
X157560087Y-114564757D01*
X156716429Y-114001043D01*
X155998957Y-113283571D01*
X155435243Y-112439913D01*
X155274407Y-112051620D01*
X155046950Y-111502490D01*
X154849000Y-110507331D01*
X154849000Y-109492669D01*
X155046950Y-108497510D01*
X155435243Y-107560088D01*
X155435243Y-107560087D01*
X155998957Y-106716429D01*
X156716429Y-105998957D01*
X157560087Y-105435243D01*
X157948380Y-105274407D01*
X158497510Y-105046950D01*
X159492669Y-104849000D01*
X160507331Y-104849000D01*
X161502490Y-105046950D01*
X161502490Y-105046950D01*
G37*
G36*
X202901000Y-110901000D02*
G01*
X201099000Y-110901000D01*
X201099000Y-109099000D01*
X202901000Y-109099000D01*
X202901000Y-110901000D01*
X202901000Y-110901000D01*
G37*
G36*
X171901000Y-110901000D02*
G01*
X170099000Y-110901000D01*
X170099000Y-109099000D01*
X171901000Y-109099000D01*
X171901000Y-110901000D01*
X171901000Y-110901000D01*
G37*
G36*
X184073446Y-101881597D02*
G01*
X184246517Y-101953285D01*
X184246518Y-101953286D01*
X184402278Y-102057361D01*
X184534741Y-102189824D01*
X184534742Y-102189826D01*
X184638817Y-102345585D01*
X184710505Y-102518656D01*
X184747051Y-102702384D01*
X184747051Y-102889718D01*
X184710505Y-103073446D01*
X184638817Y-103246517D01*
X184638816Y-103246518D01*
X184534741Y-103402278D01*
X184402278Y-103534741D01*
X184323869Y-103587132D01*
X184246517Y-103638817D01*
X184073446Y-103710505D01*
X183889718Y-103747051D01*
X183702384Y-103747051D01*
X183518656Y-103710505D01*
X183345585Y-103638817D01*
X183268233Y-103587132D01*
X183189824Y-103534741D01*
X183057361Y-103402278D01*
X182953286Y-103246518D01*
X182953285Y-103246517D01*
X182881597Y-103073446D01*
X182845051Y-102889718D01*
X182845051Y-102702384D01*
X182881597Y-102518656D01*
X182953285Y-102345585D01*
X183057360Y-102189826D01*
X183057361Y-102189824D01*
X183189824Y-102057361D01*
X183345584Y-101953286D01*
X183345585Y-101953285D01*
X183518656Y-101881597D01*
X183702384Y-101845051D01*
X183889718Y-101845051D01*
X184073446Y-101881597D01*
X184073446Y-101881597D01*
G37*
G36*
X198481344Y-101881597D02*
G01*
X198654415Y-101953285D01*
X198654416Y-101953286D01*
X198810176Y-102057361D01*
X198942639Y-102189824D01*
X198942640Y-102189826D01*
X199046715Y-102345585D01*
X199118403Y-102518656D01*
X199154949Y-102702384D01*
X199154949Y-102889718D01*
X199118403Y-103073446D01*
X199046715Y-103246517D01*
X199046714Y-103246518D01*
X198942639Y-103402278D01*
X198810176Y-103534741D01*
X198731767Y-103587132D01*
X198654415Y-103638817D01*
X198481344Y-103710505D01*
X198297616Y-103747051D01*
X198110282Y-103747051D01*
X197926554Y-103710505D01*
X197753483Y-103638817D01*
X197676131Y-103587132D01*
X197597722Y-103534741D01*
X197465259Y-103402278D01*
X197361184Y-103246518D01*
X197361183Y-103246517D01*
X197289495Y-103073446D01*
X197252949Y-102889718D01*
X197252949Y-102702384D01*
X197289495Y-102518656D01*
X197361183Y-102345585D01*
X197465258Y-102189826D01*
X197465259Y-102189824D01*
X197597722Y-102057361D01*
X197753482Y-101953286D01*
X197753483Y-101953285D01*
X197926554Y-101881597D01*
X198110282Y-101845051D01*
X198297616Y-101845051D01*
X198481344Y-101881597D01*
X198481344Y-101881597D01*
G37*
G36*
X162601000Y-103701000D02*
G01*
X157399000Y-103701000D01*
X157399000Y-101099000D01*
X162601000Y-101099000D01*
X162601000Y-103701000D01*
X162601000Y-103701000D01*
G37*
G36*
X193554591Y-102478085D02*
G01*
X193588569Y-102488393D01*
X193619890Y-102505134D01*
X193647339Y-102527661D01*
X193669866Y-102555110D01*
X193686607Y-102586431D01*
X193696915Y-102620409D01*
X193701000Y-102661890D01*
X193701000Y-103338110D01*
X193696915Y-103379591D01*
X193686607Y-103413569D01*
X193669866Y-103444890D01*
X193647339Y-103472339D01*
X193619890Y-103494866D01*
X193588569Y-103511607D01*
X193554591Y-103521915D01*
X193513110Y-103526000D01*
X192911890Y-103526000D01*
X192870409Y-103521915D01*
X192836431Y-103511607D01*
X192805110Y-103494866D01*
X192777661Y-103472339D01*
X192755134Y-103444890D01*
X192738393Y-103413569D01*
X192728085Y-103379591D01*
X192724000Y-103338110D01*
X192724000Y-102661890D01*
X192728085Y-102620409D01*
X192738393Y-102586431D01*
X192755134Y-102555110D01*
X192777661Y-102527661D01*
X192805110Y-102505134D01*
X192836431Y-102488393D01*
X192870409Y-102478085D01*
X192911890Y-102474000D01*
X193513110Y-102474000D01*
X193554591Y-102478085D01*
X193554591Y-102478085D01*
G37*
G36*
X195129591Y-102478085D02*
G01*
X195163569Y-102488393D01*
X195194890Y-102505134D01*
X195222339Y-102527661D01*
X195244866Y-102555110D01*
X195261607Y-102586431D01*
X195271915Y-102620409D01*
X195276000Y-102661890D01*
X195276000Y-103338110D01*
X195271915Y-103379591D01*
X195261607Y-103413569D01*
X195244866Y-103444890D01*
X195222339Y-103472339D01*
X195194890Y-103494866D01*
X195163569Y-103511607D01*
X195129591Y-103521915D01*
X195088110Y-103526000D01*
X194486890Y-103526000D01*
X194445409Y-103521915D01*
X194411431Y-103511607D01*
X194380110Y-103494866D01*
X194352661Y-103472339D01*
X194330134Y-103444890D01*
X194313393Y-103413569D01*
X194303085Y-103379591D01*
X194299000Y-103338110D01*
X194299000Y-102661890D01*
X194303085Y-102620409D01*
X194313393Y-102586431D01*
X194330134Y-102555110D01*
X194352661Y-102527661D01*
X194380110Y-102505134D01*
X194411431Y-102488393D01*
X194445409Y-102478085D01*
X194486890Y-102474000D01*
X195088110Y-102474000D01*
X195129591Y-102478085D01*
X195129591Y-102478085D01*
G37*
G36*
X187554591Y-102478085D02*
G01*
X187588569Y-102488393D01*
X187619890Y-102505134D01*
X187647339Y-102527661D01*
X187669866Y-102555110D01*
X187686607Y-102586431D01*
X187696915Y-102620409D01*
X187701000Y-102661890D01*
X187701000Y-103338110D01*
X187696915Y-103379591D01*
X187686607Y-103413569D01*
X187669866Y-103444890D01*
X187647339Y-103472339D01*
X187619890Y-103494866D01*
X187588569Y-103511607D01*
X187554591Y-103521915D01*
X187513110Y-103526000D01*
X186911890Y-103526000D01*
X186870409Y-103521915D01*
X186836431Y-103511607D01*
X186805110Y-103494866D01*
X186777661Y-103472339D01*
X186755134Y-103444890D01*
X186738393Y-103413569D01*
X186728085Y-103379591D01*
X186724000Y-103338110D01*
X186724000Y-102661890D01*
X186728085Y-102620409D01*
X186738393Y-102586431D01*
X186755134Y-102555110D01*
X186777661Y-102527661D01*
X186805110Y-102505134D01*
X186836431Y-102488393D01*
X186870409Y-102478085D01*
X186911890Y-102474000D01*
X187513110Y-102474000D01*
X187554591Y-102478085D01*
X187554591Y-102478085D01*
G37*
G36*
X189129591Y-102478085D02*
G01*
X189163569Y-102488393D01*
X189194890Y-102505134D01*
X189222339Y-102527661D01*
X189244866Y-102555110D01*
X189261607Y-102586431D01*
X189271915Y-102620409D01*
X189276000Y-102661890D01*
X189276000Y-103338110D01*
X189271915Y-103379591D01*
X189261607Y-103413569D01*
X189244866Y-103444890D01*
X189222339Y-103472339D01*
X189194890Y-103494866D01*
X189163569Y-103511607D01*
X189129591Y-103521915D01*
X189088110Y-103526000D01*
X188486890Y-103526000D01*
X188445409Y-103521915D01*
X188411431Y-103511607D01*
X188380110Y-103494866D01*
X188352661Y-103472339D01*
X188330134Y-103444890D01*
X188313393Y-103413569D01*
X188303085Y-103379591D01*
X188299000Y-103338110D01*
X188299000Y-102661890D01*
X188303085Y-102620409D01*
X188313393Y-102586431D01*
X188330134Y-102555110D01*
X188352661Y-102527661D01*
X188380110Y-102505134D01*
X188411431Y-102488393D01*
X188445409Y-102478085D01*
X188486890Y-102474000D01*
X189088110Y-102474000D01*
X189129591Y-102478085D01*
X189129591Y-102478085D01*
G37*
G36*
X201344917Y-101000000D02*
G01*
X200000000Y-102344917D01*
X198655083Y-101000000D01*
X200000000Y-99655083D01*
X201344917Y-101000000D01*
X201344917Y-101000000D01*
G37*
G36*
X183344917Y-101000000D02*
G01*
X182000000Y-102344917D01*
X180655083Y-101000000D01*
X182000000Y-99655083D01*
X183344917Y-101000000D01*
X183344917Y-101000000D01*
G37*
G36*
X160901000Y-98901000D02*
G01*
X159099000Y-98901000D01*
X159099000Y-97099000D01*
X160901000Y-97099000D01*
X160901000Y-98901000D01*
X160901000Y-98901000D01*
G37*
G36*
X191901000Y-98901000D02*
G01*
X190099000Y-98901000D01*
X190099000Y-97099000D01*
X191901000Y-97099000D01*
X191901000Y-98901000D01*
X191901000Y-98901000D01*
G37*
M02*
