G04 #@! TF.GenerationSoftware,KiCad,Pcbnew,5.1.4*
G04 #@! TF.CreationDate,2019-09-18T22:14:05+02:00*
G04 #@! TF.ProjectId,crf_bokmassabot,6372665f-626f-46b6-9d61-737361626f74,rev?*
G04 #@! TF.SameCoordinates,Original*
G04 #@! TF.FileFunction,Legend,Bot*
G04 #@! TF.FilePolarity,Positive*
%FSLAX46Y46*%
G04 Gerber Fmt 4.6, Leading zero omitted, Abs format (unit mm)*
G04 Created by KiCad (PCBNEW 5.1.4) date 2019-09-18 22:14:05*
%MOMM*%
%LPD*%
G04 APERTURE LIST*
%ADD10C,0.300000*%
%ADD11C,0.010000*%
%ADD12C,0.120000*%
%ADD13C,0.150000*%
G04 APERTURE END LIST*
D10*
X182095285Y-114109000D02*
X182023857Y-114180428D01*
X181952428Y-114394714D01*
X181952428Y-114537571D01*
X182023857Y-114751857D01*
X182166714Y-114894714D01*
X182309571Y-114966142D01*
X182595285Y-115037571D01*
X182809571Y-115037571D01*
X183095285Y-114966142D01*
X183238142Y-114894714D01*
X183381000Y-114751857D01*
X183452428Y-114537571D01*
X183452428Y-114394714D01*
X183381000Y-114180428D01*
X183309571Y-114109000D01*
X181952428Y-113466142D02*
X183452428Y-113466142D01*
X181952428Y-112823285D02*
X182738142Y-112823285D01*
X182881000Y-112894714D01*
X182952428Y-113037571D01*
X182952428Y-113251857D01*
X182881000Y-113394714D01*
X182809571Y-113466142D01*
X181952428Y-111466142D02*
X182738142Y-111466142D01*
X182881000Y-111537571D01*
X182952428Y-111680428D01*
X182952428Y-111966142D01*
X182881000Y-112109000D01*
X182023857Y-111466142D02*
X181952428Y-111609000D01*
X181952428Y-111966142D01*
X182023857Y-112109000D01*
X182166714Y-112180428D01*
X182309571Y-112180428D01*
X182452428Y-112109000D01*
X182523857Y-111966142D01*
X182523857Y-111609000D01*
X182595285Y-111466142D01*
X181952428Y-110537571D02*
X182023857Y-110680428D01*
X182166714Y-110751857D01*
X183452428Y-110751857D01*
X181952428Y-109966142D02*
X182952428Y-109966142D01*
X182809571Y-109966142D02*
X182881000Y-109894714D01*
X182952428Y-109751857D01*
X182952428Y-109537571D01*
X182881000Y-109394714D01*
X182738142Y-109323285D01*
X181952428Y-109323285D01*
X182738142Y-109323285D02*
X182881000Y-109251857D01*
X182952428Y-109109000D01*
X182952428Y-108894714D01*
X182881000Y-108751857D01*
X182738142Y-108680428D01*
X181952428Y-108680428D01*
X182023857Y-107394714D02*
X181952428Y-107537571D01*
X181952428Y-107823285D01*
X182023857Y-107966142D01*
X182166714Y-108037571D01*
X182738142Y-108037571D01*
X182881000Y-107966142D01*
X182952428Y-107823285D01*
X182952428Y-107537571D01*
X182881000Y-107394714D01*
X182738142Y-107323285D01*
X182595285Y-107323285D01*
X182452428Y-108037571D01*
X181952428Y-106680428D02*
X182952428Y-106680428D01*
X182666714Y-106680428D02*
X182809571Y-106609000D01*
X182881000Y-106537571D01*
X182952428Y-106394714D01*
X182952428Y-106251857D01*
X182023857Y-105823285D02*
X181952428Y-105680428D01*
X181952428Y-105394714D01*
X182023857Y-105251857D01*
X182166714Y-105180428D01*
X182238142Y-105180428D01*
X182381000Y-105251857D01*
X182452428Y-105394714D01*
X182452428Y-105609000D01*
X182523857Y-105751857D01*
X182666714Y-105823285D01*
X182738142Y-105823285D01*
X182881000Y-105751857D01*
X182952428Y-105609000D01*
X182952428Y-105394714D01*
X182881000Y-105251857D01*
X179402428Y-116716142D02*
X180116714Y-117216142D01*
X179402428Y-117573285D02*
X180902428Y-117573285D01*
X180902428Y-117001857D01*
X180831000Y-116859000D01*
X180759571Y-116787571D01*
X180616714Y-116716142D01*
X180402428Y-116716142D01*
X180259571Y-116787571D01*
X180188142Y-116859000D01*
X180116714Y-117001857D01*
X180116714Y-117573285D01*
X179402428Y-115859000D02*
X179473857Y-116001857D01*
X179545285Y-116073285D01*
X179688142Y-116144714D01*
X180116714Y-116144714D01*
X180259571Y-116073285D01*
X180331000Y-116001857D01*
X180402428Y-115859000D01*
X180402428Y-115644714D01*
X180331000Y-115501857D01*
X180259571Y-115430428D01*
X180116714Y-115359000D01*
X179688142Y-115359000D01*
X179545285Y-115430428D01*
X179473857Y-115501857D01*
X179402428Y-115644714D01*
X179402428Y-115859000D01*
X179402428Y-114716142D02*
X180902428Y-114716142D01*
X180331000Y-114716142D02*
X180402428Y-114573285D01*
X180402428Y-114287571D01*
X180331000Y-114144714D01*
X180259571Y-114073285D01*
X180116714Y-114001857D01*
X179688142Y-114001857D01*
X179545285Y-114073285D01*
X179473857Y-114144714D01*
X179402428Y-114287571D01*
X179402428Y-114573285D01*
X179473857Y-114716142D01*
X179402428Y-113144714D02*
X179473857Y-113287571D01*
X179545285Y-113359000D01*
X179688142Y-113430428D01*
X180116714Y-113430428D01*
X180259571Y-113359000D01*
X180331000Y-113287571D01*
X180402428Y-113144714D01*
X180402428Y-112930428D01*
X180331000Y-112787571D01*
X180259571Y-112716142D01*
X180116714Y-112644714D01*
X179688142Y-112644714D01*
X179545285Y-112716142D01*
X179473857Y-112787571D01*
X179402428Y-112930428D01*
X179402428Y-113144714D01*
X180402428Y-112216142D02*
X180402428Y-111644714D01*
X180902428Y-112001857D02*
X179616714Y-112001857D01*
X179473857Y-111930428D01*
X179402428Y-111787571D01*
X179402428Y-111644714D01*
X180402428Y-111359000D02*
X180402428Y-110787571D01*
X179402428Y-111144714D02*
X180688142Y-111144714D01*
X180831000Y-111073285D01*
X180902428Y-110930428D01*
X180902428Y-110787571D01*
X179402428Y-110073285D02*
X179473857Y-110216142D01*
X179545285Y-110287571D01*
X179688142Y-110359000D01*
X180116714Y-110359000D01*
X180259571Y-110287571D01*
X180331000Y-110216142D01*
X180402428Y-110073285D01*
X180402428Y-109859000D01*
X180331000Y-109716142D01*
X180259571Y-109644714D01*
X180116714Y-109573285D01*
X179688142Y-109573285D01*
X179545285Y-109644714D01*
X179473857Y-109716142D01*
X179402428Y-109859000D01*
X179402428Y-110073285D01*
X180902428Y-110216142D02*
X180831000Y-110144714D01*
X180759571Y-110216142D01*
X180831000Y-110287571D01*
X180902428Y-110216142D01*
X180759571Y-110216142D01*
X180902428Y-109644714D02*
X180831000Y-109573285D01*
X180759571Y-109644714D01*
X180831000Y-109716142D01*
X180902428Y-109644714D01*
X180759571Y-109644714D01*
X179402428Y-108930428D02*
X180402428Y-108930428D01*
X180116714Y-108930428D02*
X180259571Y-108859000D01*
X180331000Y-108787571D01*
X180402428Y-108644714D01*
X180402428Y-108501857D01*
X179473857Y-107430428D02*
X179402428Y-107573285D01*
X179402428Y-107859000D01*
X179473857Y-108001857D01*
X179616714Y-108073285D01*
X180188142Y-108073285D01*
X180331000Y-108001857D01*
X180402428Y-107859000D01*
X180402428Y-107573285D01*
X180331000Y-107430428D01*
X180188142Y-107359000D01*
X180045285Y-107359000D01*
X179902428Y-108073285D01*
X180402428Y-106716142D02*
X179402428Y-106716142D01*
X180259571Y-106716142D02*
X180331000Y-106644714D01*
X180402428Y-106501857D01*
X180402428Y-106287571D01*
X180331000Y-106144714D01*
X180188142Y-106073285D01*
X179402428Y-106073285D01*
X179402428Y-105359000D02*
X180402428Y-105359000D01*
X180902428Y-105359000D02*
X180831000Y-105430428D01*
X180759571Y-105359000D01*
X180831000Y-105287571D01*
X180902428Y-105359000D01*
X180759571Y-105359000D01*
X180402428Y-104644714D02*
X179402428Y-104644714D01*
X180259571Y-104644714D02*
X180331000Y-104573285D01*
X180402428Y-104430428D01*
X180402428Y-104216142D01*
X180331000Y-104073285D01*
X180188142Y-104001857D01*
X179402428Y-104001857D01*
X180402428Y-102644714D02*
X179188142Y-102644714D01*
X179045285Y-102716142D01*
X178973857Y-102787571D01*
X178902428Y-102930428D01*
X178902428Y-103144714D01*
X178973857Y-103287571D01*
X179473857Y-102644714D02*
X179402428Y-102787571D01*
X179402428Y-103073285D01*
X179473857Y-103216142D01*
X179545285Y-103287571D01*
X179688142Y-103359000D01*
X180116714Y-103359000D01*
X180259571Y-103287571D01*
X180331000Y-103216142D01*
X180402428Y-103073285D01*
X180402428Y-102787571D01*
X180331000Y-102644714D01*
D11*
G36*
X196785000Y-104205000D02*
G01*
X197285000Y-104205000D01*
X197285000Y-103705000D01*
X196785000Y-103705000D01*
X196785000Y-104205000D01*
X196785000Y-104205000D01*
G37*
X196785000Y-104205000D02*
X197285000Y-104205000D01*
X197285000Y-103705000D01*
X196785000Y-103705000D01*
X196785000Y-104205000D01*
G36*
X196285000Y-104205000D02*
G01*
X196785000Y-104205000D01*
X196785000Y-103705000D01*
X196285000Y-103705000D01*
X196285000Y-104205000D01*
X196285000Y-104205000D01*
G37*
X196285000Y-104205000D02*
X196785000Y-104205000D01*
X196785000Y-103705000D01*
X196285000Y-103705000D01*
X196285000Y-104205000D01*
G36*
X195785000Y-104205000D02*
G01*
X196285000Y-104205000D01*
X196285000Y-103705000D01*
X195785000Y-103705000D01*
X195785000Y-104205000D01*
X195785000Y-104205000D01*
G37*
X195785000Y-104205000D02*
X196285000Y-104205000D01*
X196285000Y-103705000D01*
X195785000Y-103705000D01*
X195785000Y-104205000D01*
G36*
X195285000Y-104205000D02*
G01*
X195785000Y-104205000D01*
X195785000Y-103705000D01*
X195285000Y-103705000D01*
X195285000Y-104205000D01*
X195285000Y-104205000D01*
G37*
X195285000Y-104205000D02*
X195785000Y-104205000D01*
X195785000Y-103705000D01*
X195285000Y-103705000D01*
X195285000Y-104205000D01*
G36*
X194785000Y-104205000D02*
G01*
X195285000Y-104205000D01*
X195285000Y-103705000D01*
X194785000Y-103705000D01*
X194785000Y-104205000D01*
X194785000Y-104205000D01*
G37*
X194785000Y-104205000D02*
X195285000Y-104205000D01*
X195285000Y-103705000D01*
X194785000Y-103705000D01*
X194785000Y-104205000D01*
G36*
X194285000Y-104205000D02*
G01*
X194785000Y-104205000D01*
X194785000Y-103705000D01*
X194285000Y-103705000D01*
X194285000Y-104205000D01*
X194285000Y-104205000D01*
G37*
X194285000Y-104205000D02*
X194785000Y-104205000D01*
X194785000Y-103705000D01*
X194285000Y-103705000D01*
X194285000Y-104205000D01*
G36*
X193785000Y-104205000D02*
G01*
X194285000Y-104205000D01*
X194285000Y-103705000D01*
X193785000Y-103705000D01*
X193785000Y-104205000D01*
X193785000Y-104205000D01*
G37*
X193785000Y-104205000D02*
X194285000Y-104205000D01*
X194285000Y-103705000D01*
X193785000Y-103705000D01*
X193785000Y-104205000D01*
G36*
X191785000Y-104205000D02*
G01*
X192285000Y-104205000D01*
X192285000Y-103705000D01*
X191785000Y-103705000D01*
X191785000Y-104205000D01*
X191785000Y-104205000D01*
G37*
X191785000Y-104205000D02*
X192285000Y-104205000D01*
X192285000Y-103705000D01*
X191785000Y-103705000D01*
X191785000Y-104205000D01*
G36*
X191285000Y-104205000D02*
G01*
X191785000Y-104205000D01*
X191785000Y-103705000D01*
X191285000Y-103705000D01*
X191285000Y-104205000D01*
X191285000Y-104205000D01*
G37*
X191285000Y-104205000D02*
X191785000Y-104205000D01*
X191785000Y-103705000D01*
X191285000Y-103705000D01*
X191285000Y-104205000D01*
G36*
X188785000Y-104205000D02*
G01*
X189285000Y-104205000D01*
X189285000Y-103705000D01*
X188785000Y-103705000D01*
X188785000Y-104205000D01*
X188785000Y-104205000D01*
G37*
X188785000Y-104205000D02*
X189285000Y-104205000D01*
X189285000Y-103705000D01*
X188785000Y-103705000D01*
X188785000Y-104205000D01*
G36*
X187785000Y-104205000D02*
G01*
X188285000Y-104205000D01*
X188285000Y-103705000D01*
X187785000Y-103705000D01*
X187785000Y-104205000D01*
X187785000Y-104205000D01*
G37*
X187785000Y-104205000D02*
X188285000Y-104205000D01*
X188285000Y-103705000D01*
X187785000Y-103705000D01*
X187785000Y-104205000D01*
G36*
X187285000Y-104205000D02*
G01*
X187785000Y-104205000D01*
X187785000Y-103705000D01*
X187285000Y-103705000D01*
X187285000Y-104205000D01*
X187285000Y-104205000D01*
G37*
X187285000Y-104205000D02*
X187785000Y-104205000D01*
X187785000Y-103705000D01*
X187285000Y-103705000D01*
X187285000Y-104205000D01*
G36*
X186785000Y-104205000D02*
G01*
X187285000Y-104205000D01*
X187285000Y-103705000D01*
X186785000Y-103705000D01*
X186785000Y-104205000D01*
X186785000Y-104205000D01*
G37*
X186785000Y-104205000D02*
X187285000Y-104205000D01*
X187285000Y-103705000D01*
X186785000Y-103705000D01*
X186785000Y-104205000D01*
G36*
X186285000Y-104205000D02*
G01*
X186785000Y-104205000D01*
X186785000Y-103705000D01*
X186285000Y-103705000D01*
X186285000Y-104205000D01*
X186285000Y-104205000D01*
G37*
X186285000Y-104205000D02*
X186785000Y-104205000D01*
X186785000Y-103705000D01*
X186285000Y-103705000D01*
X186285000Y-104205000D01*
G36*
X185785000Y-104205000D02*
G01*
X186285000Y-104205000D01*
X186285000Y-103705000D01*
X185785000Y-103705000D01*
X185785000Y-104205000D01*
X185785000Y-104205000D01*
G37*
X185785000Y-104205000D02*
X186285000Y-104205000D01*
X186285000Y-103705000D01*
X185785000Y-103705000D01*
X185785000Y-104205000D01*
G36*
X185285000Y-104205000D02*
G01*
X185785000Y-104205000D01*
X185785000Y-103705000D01*
X185285000Y-103705000D01*
X185285000Y-104205000D01*
X185285000Y-104205000D01*
G37*
X185285000Y-104205000D02*
X185785000Y-104205000D01*
X185785000Y-103705000D01*
X185285000Y-103705000D01*
X185285000Y-104205000D01*
G36*
X184785000Y-104205000D02*
G01*
X185285000Y-104205000D01*
X185285000Y-103705000D01*
X184785000Y-103705000D01*
X184785000Y-104205000D01*
X184785000Y-104205000D01*
G37*
X184785000Y-104205000D02*
X185285000Y-104205000D01*
X185285000Y-103705000D01*
X184785000Y-103705000D01*
X184785000Y-104205000D01*
G36*
X195785000Y-104705000D02*
G01*
X196285000Y-104705000D01*
X196285000Y-104205000D01*
X195785000Y-104205000D01*
X195785000Y-104705000D01*
X195785000Y-104705000D01*
G37*
X195785000Y-104705000D02*
X196285000Y-104705000D01*
X196285000Y-104205000D01*
X195785000Y-104205000D01*
X195785000Y-104705000D01*
G36*
X194785000Y-104705000D02*
G01*
X195285000Y-104705000D01*
X195285000Y-104205000D01*
X194785000Y-104205000D01*
X194785000Y-104705000D01*
X194785000Y-104705000D01*
G37*
X194785000Y-104705000D02*
X195285000Y-104705000D01*
X195285000Y-104205000D01*
X194785000Y-104205000D01*
X194785000Y-104705000D01*
G36*
X193785000Y-104705000D02*
G01*
X194285000Y-104705000D01*
X194285000Y-104205000D01*
X193785000Y-104205000D01*
X193785000Y-104705000D01*
X193785000Y-104705000D01*
G37*
X193785000Y-104705000D02*
X194285000Y-104705000D01*
X194285000Y-104205000D01*
X193785000Y-104205000D01*
X193785000Y-104705000D01*
G36*
X193285000Y-104705000D02*
G01*
X193785000Y-104705000D01*
X193785000Y-104205000D01*
X193285000Y-104205000D01*
X193285000Y-104705000D01*
X193285000Y-104705000D01*
G37*
X193285000Y-104705000D02*
X193785000Y-104705000D01*
X193785000Y-104205000D01*
X193285000Y-104205000D01*
X193285000Y-104705000D01*
G36*
X191785000Y-104705000D02*
G01*
X192285000Y-104705000D01*
X192285000Y-104205000D01*
X191785000Y-104205000D01*
X191785000Y-104705000D01*
X191785000Y-104705000D01*
G37*
X191785000Y-104705000D02*
X192285000Y-104705000D01*
X192285000Y-104205000D01*
X191785000Y-104205000D01*
X191785000Y-104705000D01*
G36*
X191285000Y-104705000D02*
G01*
X191785000Y-104705000D01*
X191785000Y-104205000D01*
X191285000Y-104205000D01*
X191285000Y-104705000D01*
X191285000Y-104705000D01*
G37*
X191285000Y-104705000D02*
X191785000Y-104705000D01*
X191785000Y-104205000D01*
X191285000Y-104205000D01*
X191285000Y-104705000D01*
G36*
X190285000Y-104705000D02*
G01*
X190785000Y-104705000D01*
X190785000Y-104205000D01*
X190285000Y-104205000D01*
X190285000Y-104705000D01*
X190285000Y-104705000D01*
G37*
X190285000Y-104705000D02*
X190785000Y-104705000D01*
X190785000Y-104205000D01*
X190285000Y-104205000D01*
X190285000Y-104705000D01*
G36*
X189785000Y-104705000D02*
G01*
X190285000Y-104705000D01*
X190285000Y-104205000D01*
X189785000Y-104205000D01*
X189785000Y-104705000D01*
X189785000Y-104705000D01*
G37*
X189785000Y-104705000D02*
X190285000Y-104705000D01*
X190285000Y-104205000D01*
X189785000Y-104205000D01*
X189785000Y-104705000D01*
G36*
X188785000Y-104705000D02*
G01*
X189285000Y-104705000D01*
X189285000Y-104205000D01*
X188785000Y-104205000D01*
X188785000Y-104705000D01*
X188785000Y-104705000D01*
G37*
X188785000Y-104705000D02*
X189285000Y-104705000D01*
X189285000Y-104205000D01*
X188785000Y-104205000D01*
X188785000Y-104705000D01*
G36*
X187785000Y-104705000D02*
G01*
X188285000Y-104705000D01*
X188285000Y-104205000D01*
X187785000Y-104205000D01*
X187785000Y-104705000D01*
X187785000Y-104705000D01*
G37*
X187785000Y-104705000D02*
X188285000Y-104705000D01*
X188285000Y-104205000D01*
X187785000Y-104205000D01*
X187785000Y-104705000D01*
G36*
X184785000Y-104705000D02*
G01*
X185285000Y-104705000D01*
X185285000Y-104205000D01*
X184785000Y-104205000D01*
X184785000Y-104705000D01*
X184785000Y-104705000D01*
G37*
X184785000Y-104705000D02*
X185285000Y-104705000D01*
X185285000Y-104205000D01*
X184785000Y-104205000D01*
X184785000Y-104705000D01*
G36*
X196285000Y-105205000D02*
G01*
X196785000Y-105205000D01*
X196785000Y-104705000D01*
X196285000Y-104705000D01*
X196285000Y-105205000D01*
X196285000Y-105205000D01*
G37*
X196285000Y-105205000D02*
X196785000Y-105205000D01*
X196785000Y-104705000D01*
X196285000Y-104705000D01*
X196285000Y-105205000D01*
G36*
X195785000Y-105205000D02*
G01*
X196285000Y-105205000D01*
X196285000Y-104705000D01*
X195785000Y-104705000D01*
X195785000Y-105205000D01*
X195785000Y-105205000D01*
G37*
X195785000Y-105205000D02*
X196285000Y-105205000D01*
X196285000Y-104705000D01*
X195785000Y-104705000D01*
X195785000Y-105205000D01*
G36*
X194785000Y-105205000D02*
G01*
X195285000Y-105205000D01*
X195285000Y-104705000D01*
X194785000Y-104705000D01*
X194785000Y-105205000D01*
X194785000Y-105205000D01*
G37*
X194785000Y-105205000D02*
X195285000Y-105205000D01*
X195285000Y-104705000D01*
X194785000Y-104705000D01*
X194785000Y-105205000D01*
G36*
X193785000Y-105205000D02*
G01*
X194285000Y-105205000D01*
X194285000Y-104705000D01*
X193785000Y-104705000D01*
X193785000Y-105205000D01*
X193785000Y-105205000D01*
G37*
X193785000Y-105205000D02*
X194285000Y-105205000D01*
X194285000Y-104705000D01*
X193785000Y-104705000D01*
X193785000Y-105205000D01*
G36*
X193285000Y-105205000D02*
G01*
X193785000Y-105205000D01*
X193785000Y-104705000D01*
X193285000Y-104705000D01*
X193285000Y-105205000D01*
X193285000Y-105205000D01*
G37*
X193285000Y-105205000D02*
X193785000Y-105205000D01*
X193785000Y-104705000D01*
X193285000Y-104705000D01*
X193285000Y-105205000D01*
G36*
X192785000Y-105205000D02*
G01*
X193285000Y-105205000D01*
X193285000Y-104705000D01*
X192785000Y-104705000D01*
X192785000Y-105205000D01*
X192785000Y-105205000D01*
G37*
X192785000Y-105205000D02*
X193285000Y-105205000D01*
X193285000Y-104705000D01*
X192785000Y-104705000D01*
X192785000Y-105205000D01*
G36*
X192285000Y-105205000D02*
G01*
X192785000Y-105205000D01*
X192785000Y-104705000D01*
X192285000Y-104705000D01*
X192285000Y-105205000D01*
X192285000Y-105205000D01*
G37*
X192285000Y-105205000D02*
X192785000Y-105205000D01*
X192785000Y-104705000D01*
X192285000Y-104705000D01*
X192285000Y-105205000D01*
G36*
X191785000Y-105205000D02*
G01*
X192285000Y-105205000D01*
X192285000Y-104705000D01*
X191785000Y-104705000D01*
X191785000Y-105205000D01*
X191785000Y-105205000D01*
G37*
X191785000Y-105205000D02*
X192285000Y-105205000D01*
X192285000Y-104705000D01*
X191785000Y-104705000D01*
X191785000Y-105205000D01*
G36*
X191285000Y-105205000D02*
G01*
X191785000Y-105205000D01*
X191785000Y-104705000D01*
X191285000Y-104705000D01*
X191285000Y-105205000D01*
X191285000Y-105205000D01*
G37*
X191285000Y-105205000D02*
X191785000Y-105205000D01*
X191785000Y-104705000D01*
X191285000Y-104705000D01*
X191285000Y-105205000D01*
G36*
X190785000Y-105205000D02*
G01*
X191285000Y-105205000D01*
X191285000Y-104705000D01*
X190785000Y-104705000D01*
X190785000Y-105205000D01*
X190785000Y-105205000D01*
G37*
X190785000Y-105205000D02*
X191285000Y-105205000D01*
X191285000Y-104705000D01*
X190785000Y-104705000D01*
X190785000Y-105205000D01*
G36*
X190285000Y-105205000D02*
G01*
X190785000Y-105205000D01*
X190785000Y-104705000D01*
X190285000Y-104705000D01*
X190285000Y-105205000D01*
X190285000Y-105205000D01*
G37*
X190285000Y-105205000D02*
X190785000Y-105205000D01*
X190785000Y-104705000D01*
X190285000Y-104705000D01*
X190285000Y-105205000D01*
G36*
X189285000Y-105205000D02*
G01*
X189785000Y-105205000D01*
X189785000Y-104705000D01*
X189285000Y-104705000D01*
X189285000Y-105205000D01*
X189285000Y-105205000D01*
G37*
X189285000Y-105205000D02*
X189785000Y-105205000D01*
X189785000Y-104705000D01*
X189285000Y-104705000D01*
X189285000Y-105205000D01*
G36*
X188785000Y-105205000D02*
G01*
X189285000Y-105205000D01*
X189285000Y-104705000D01*
X188785000Y-104705000D01*
X188785000Y-105205000D01*
X188785000Y-105205000D01*
G37*
X188785000Y-105205000D02*
X189285000Y-105205000D01*
X189285000Y-104705000D01*
X188785000Y-104705000D01*
X188785000Y-105205000D01*
G36*
X187785000Y-105205000D02*
G01*
X188285000Y-105205000D01*
X188285000Y-104705000D01*
X187785000Y-104705000D01*
X187785000Y-105205000D01*
X187785000Y-105205000D01*
G37*
X187785000Y-105205000D02*
X188285000Y-105205000D01*
X188285000Y-104705000D01*
X187785000Y-104705000D01*
X187785000Y-105205000D01*
G36*
X186785000Y-105205000D02*
G01*
X187285000Y-105205000D01*
X187285000Y-104705000D01*
X186785000Y-104705000D01*
X186785000Y-105205000D01*
X186785000Y-105205000D01*
G37*
X186785000Y-105205000D02*
X187285000Y-105205000D01*
X187285000Y-104705000D01*
X186785000Y-104705000D01*
X186785000Y-105205000D01*
G36*
X186285000Y-105205000D02*
G01*
X186785000Y-105205000D01*
X186785000Y-104705000D01*
X186285000Y-104705000D01*
X186285000Y-105205000D01*
X186285000Y-105205000D01*
G37*
X186285000Y-105205000D02*
X186785000Y-105205000D01*
X186785000Y-104705000D01*
X186285000Y-104705000D01*
X186285000Y-105205000D01*
G36*
X185785000Y-105205000D02*
G01*
X186285000Y-105205000D01*
X186285000Y-104705000D01*
X185785000Y-104705000D01*
X185785000Y-105205000D01*
X185785000Y-105205000D01*
G37*
X185785000Y-105205000D02*
X186285000Y-105205000D01*
X186285000Y-104705000D01*
X185785000Y-104705000D01*
X185785000Y-105205000D01*
G36*
X184785000Y-105205000D02*
G01*
X185285000Y-105205000D01*
X185285000Y-104705000D01*
X184785000Y-104705000D01*
X184785000Y-105205000D01*
X184785000Y-105205000D01*
G37*
X184785000Y-105205000D02*
X185285000Y-105205000D01*
X185285000Y-104705000D01*
X184785000Y-104705000D01*
X184785000Y-105205000D01*
G36*
X196785000Y-105705000D02*
G01*
X197285000Y-105705000D01*
X197285000Y-105205000D01*
X196785000Y-105205000D01*
X196785000Y-105705000D01*
X196785000Y-105705000D01*
G37*
X196785000Y-105705000D02*
X197285000Y-105705000D01*
X197285000Y-105205000D01*
X196785000Y-105205000D01*
X196785000Y-105705000D01*
G36*
X196285000Y-105705000D02*
G01*
X196785000Y-105705000D01*
X196785000Y-105205000D01*
X196285000Y-105205000D01*
X196285000Y-105705000D01*
X196285000Y-105705000D01*
G37*
X196285000Y-105705000D02*
X196785000Y-105705000D01*
X196785000Y-105205000D01*
X196285000Y-105205000D01*
X196285000Y-105705000D01*
G36*
X195785000Y-105705000D02*
G01*
X196285000Y-105705000D01*
X196285000Y-105205000D01*
X195785000Y-105205000D01*
X195785000Y-105705000D01*
X195785000Y-105705000D01*
G37*
X195785000Y-105705000D02*
X196285000Y-105705000D01*
X196285000Y-105205000D01*
X195785000Y-105205000D01*
X195785000Y-105705000D01*
G36*
X195285000Y-105705000D02*
G01*
X195785000Y-105705000D01*
X195785000Y-105205000D01*
X195285000Y-105205000D01*
X195285000Y-105705000D01*
X195285000Y-105705000D01*
G37*
X195285000Y-105705000D02*
X195785000Y-105705000D01*
X195785000Y-105205000D01*
X195285000Y-105205000D01*
X195285000Y-105705000D01*
G36*
X194785000Y-105705000D02*
G01*
X195285000Y-105705000D01*
X195285000Y-105205000D01*
X194785000Y-105205000D01*
X194785000Y-105705000D01*
X194785000Y-105705000D01*
G37*
X194785000Y-105705000D02*
X195285000Y-105705000D01*
X195285000Y-105205000D01*
X194785000Y-105205000D01*
X194785000Y-105705000D01*
G36*
X193785000Y-105705000D02*
G01*
X194285000Y-105705000D01*
X194285000Y-105205000D01*
X193785000Y-105205000D01*
X193785000Y-105705000D01*
X193785000Y-105705000D01*
G37*
X193785000Y-105705000D02*
X194285000Y-105705000D01*
X194285000Y-105205000D01*
X193785000Y-105205000D01*
X193785000Y-105705000D01*
G36*
X193285000Y-105705000D02*
G01*
X193785000Y-105705000D01*
X193785000Y-105205000D01*
X193285000Y-105205000D01*
X193285000Y-105705000D01*
X193285000Y-105705000D01*
G37*
X193285000Y-105705000D02*
X193785000Y-105705000D01*
X193785000Y-105205000D01*
X193285000Y-105205000D01*
X193285000Y-105705000D01*
G36*
X190785000Y-105705000D02*
G01*
X191285000Y-105705000D01*
X191285000Y-105205000D01*
X190785000Y-105205000D01*
X190785000Y-105705000D01*
X190785000Y-105705000D01*
G37*
X190785000Y-105705000D02*
X191285000Y-105705000D01*
X191285000Y-105205000D01*
X190785000Y-105205000D01*
X190785000Y-105705000D01*
G36*
X190285000Y-105705000D02*
G01*
X190785000Y-105705000D01*
X190785000Y-105205000D01*
X190285000Y-105205000D01*
X190285000Y-105705000D01*
X190285000Y-105705000D01*
G37*
X190285000Y-105705000D02*
X190785000Y-105705000D01*
X190785000Y-105205000D01*
X190285000Y-105205000D01*
X190285000Y-105705000D01*
G36*
X189785000Y-105705000D02*
G01*
X190285000Y-105705000D01*
X190285000Y-105205000D01*
X189785000Y-105205000D01*
X189785000Y-105705000D01*
X189785000Y-105705000D01*
G37*
X189785000Y-105705000D02*
X190285000Y-105705000D01*
X190285000Y-105205000D01*
X189785000Y-105205000D01*
X189785000Y-105705000D01*
G36*
X188785000Y-105705000D02*
G01*
X189285000Y-105705000D01*
X189285000Y-105205000D01*
X188785000Y-105205000D01*
X188785000Y-105705000D01*
X188785000Y-105705000D01*
G37*
X188785000Y-105705000D02*
X189285000Y-105705000D01*
X189285000Y-105205000D01*
X188785000Y-105205000D01*
X188785000Y-105705000D01*
G36*
X187785000Y-105705000D02*
G01*
X188285000Y-105705000D01*
X188285000Y-105205000D01*
X187785000Y-105205000D01*
X187785000Y-105705000D01*
X187785000Y-105705000D01*
G37*
X187785000Y-105705000D02*
X188285000Y-105705000D01*
X188285000Y-105205000D01*
X187785000Y-105205000D01*
X187785000Y-105705000D01*
G36*
X186785000Y-105705000D02*
G01*
X187285000Y-105705000D01*
X187285000Y-105205000D01*
X186785000Y-105205000D01*
X186785000Y-105705000D01*
X186785000Y-105705000D01*
G37*
X186785000Y-105705000D02*
X187285000Y-105705000D01*
X187285000Y-105205000D01*
X186785000Y-105205000D01*
X186785000Y-105705000D01*
G36*
X186285000Y-105705000D02*
G01*
X186785000Y-105705000D01*
X186785000Y-105205000D01*
X186285000Y-105205000D01*
X186285000Y-105705000D01*
X186285000Y-105705000D01*
G37*
X186285000Y-105705000D02*
X186785000Y-105705000D01*
X186785000Y-105205000D01*
X186285000Y-105205000D01*
X186285000Y-105705000D01*
G36*
X185785000Y-105705000D02*
G01*
X186285000Y-105705000D01*
X186285000Y-105205000D01*
X185785000Y-105205000D01*
X185785000Y-105705000D01*
X185785000Y-105705000D01*
G37*
X185785000Y-105705000D02*
X186285000Y-105705000D01*
X186285000Y-105205000D01*
X185785000Y-105205000D01*
X185785000Y-105705000D01*
G36*
X184785000Y-105705000D02*
G01*
X185285000Y-105705000D01*
X185285000Y-105205000D01*
X184785000Y-105205000D01*
X184785000Y-105705000D01*
X184785000Y-105705000D01*
G37*
X184785000Y-105705000D02*
X185285000Y-105705000D01*
X185285000Y-105205000D01*
X184785000Y-105205000D01*
X184785000Y-105705000D01*
G36*
X196785000Y-106205000D02*
G01*
X197285000Y-106205000D01*
X197285000Y-105705000D01*
X196785000Y-105705000D01*
X196785000Y-106205000D01*
X196785000Y-106205000D01*
G37*
X196785000Y-106205000D02*
X197285000Y-106205000D01*
X197285000Y-105705000D01*
X196785000Y-105705000D01*
X196785000Y-106205000D01*
G36*
X195285000Y-106205000D02*
G01*
X195785000Y-106205000D01*
X195785000Y-105705000D01*
X195285000Y-105705000D01*
X195285000Y-106205000D01*
X195285000Y-106205000D01*
G37*
X195285000Y-106205000D02*
X195785000Y-106205000D01*
X195785000Y-105705000D01*
X195285000Y-105705000D01*
X195285000Y-106205000D01*
G36*
X194785000Y-106205000D02*
G01*
X195285000Y-106205000D01*
X195285000Y-105705000D01*
X194785000Y-105705000D01*
X194785000Y-106205000D01*
X194785000Y-106205000D01*
G37*
X194785000Y-106205000D02*
X195285000Y-106205000D01*
X195285000Y-105705000D01*
X194785000Y-105705000D01*
X194785000Y-106205000D01*
G36*
X194285000Y-106205000D02*
G01*
X194785000Y-106205000D01*
X194785000Y-105705000D01*
X194285000Y-105705000D01*
X194285000Y-106205000D01*
X194285000Y-106205000D01*
G37*
X194285000Y-106205000D02*
X194785000Y-106205000D01*
X194785000Y-105705000D01*
X194285000Y-105705000D01*
X194285000Y-106205000D01*
G36*
X193785000Y-106205000D02*
G01*
X194285000Y-106205000D01*
X194285000Y-105705000D01*
X193785000Y-105705000D01*
X193785000Y-106205000D01*
X193785000Y-106205000D01*
G37*
X193785000Y-106205000D02*
X194285000Y-106205000D01*
X194285000Y-105705000D01*
X193785000Y-105705000D01*
X193785000Y-106205000D01*
G36*
X193285000Y-106205000D02*
G01*
X193785000Y-106205000D01*
X193785000Y-105705000D01*
X193285000Y-105705000D01*
X193285000Y-106205000D01*
X193285000Y-106205000D01*
G37*
X193285000Y-106205000D02*
X193785000Y-106205000D01*
X193785000Y-105705000D01*
X193285000Y-105705000D01*
X193285000Y-106205000D01*
G36*
X192785000Y-106205000D02*
G01*
X193285000Y-106205000D01*
X193285000Y-105705000D01*
X192785000Y-105705000D01*
X192785000Y-106205000D01*
X192785000Y-106205000D01*
G37*
X192785000Y-106205000D02*
X193285000Y-106205000D01*
X193285000Y-105705000D01*
X192785000Y-105705000D01*
X192785000Y-106205000D01*
G36*
X191785000Y-106205000D02*
G01*
X192285000Y-106205000D01*
X192285000Y-105705000D01*
X191785000Y-105705000D01*
X191785000Y-106205000D01*
X191785000Y-106205000D01*
G37*
X191785000Y-106205000D02*
X192285000Y-106205000D01*
X192285000Y-105705000D01*
X191785000Y-105705000D01*
X191785000Y-106205000D01*
G36*
X190285000Y-106205000D02*
G01*
X190785000Y-106205000D01*
X190785000Y-105705000D01*
X190285000Y-105705000D01*
X190285000Y-106205000D01*
X190285000Y-106205000D01*
G37*
X190285000Y-106205000D02*
X190785000Y-106205000D01*
X190785000Y-105705000D01*
X190285000Y-105705000D01*
X190285000Y-106205000D01*
G36*
X189785000Y-106205000D02*
G01*
X190285000Y-106205000D01*
X190285000Y-105705000D01*
X189785000Y-105705000D01*
X189785000Y-106205000D01*
X189785000Y-106205000D01*
G37*
X189785000Y-106205000D02*
X190285000Y-106205000D01*
X190285000Y-105705000D01*
X189785000Y-105705000D01*
X189785000Y-106205000D01*
G36*
X187785000Y-106205000D02*
G01*
X188285000Y-106205000D01*
X188285000Y-105705000D01*
X187785000Y-105705000D01*
X187785000Y-106205000D01*
X187785000Y-106205000D01*
G37*
X187785000Y-106205000D02*
X188285000Y-106205000D01*
X188285000Y-105705000D01*
X187785000Y-105705000D01*
X187785000Y-106205000D01*
G36*
X186785000Y-106205000D02*
G01*
X187285000Y-106205000D01*
X187285000Y-105705000D01*
X186785000Y-105705000D01*
X186785000Y-106205000D01*
X186785000Y-106205000D01*
G37*
X186785000Y-106205000D02*
X187285000Y-106205000D01*
X187285000Y-105705000D01*
X186785000Y-105705000D01*
X186785000Y-106205000D01*
G36*
X186285000Y-106205000D02*
G01*
X186785000Y-106205000D01*
X186785000Y-105705000D01*
X186285000Y-105705000D01*
X186285000Y-106205000D01*
X186285000Y-106205000D01*
G37*
X186285000Y-106205000D02*
X186785000Y-106205000D01*
X186785000Y-105705000D01*
X186285000Y-105705000D01*
X186285000Y-106205000D01*
G36*
X185785000Y-106205000D02*
G01*
X186285000Y-106205000D01*
X186285000Y-105705000D01*
X185785000Y-105705000D01*
X185785000Y-106205000D01*
X185785000Y-106205000D01*
G37*
X185785000Y-106205000D02*
X186285000Y-106205000D01*
X186285000Y-105705000D01*
X185785000Y-105705000D01*
X185785000Y-106205000D01*
G36*
X184785000Y-106205000D02*
G01*
X185285000Y-106205000D01*
X185285000Y-105705000D01*
X184785000Y-105705000D01*
X184785000Y-106205000D01*
X184785000Y-106205000D01*
G37*
X184785000Y-106205000D02*
X185285000Y-106205000D01*
X185285000Y-105705000D01*
X184785000Y-105705000D01*
X184785000Y-106205000D01*
G36*
X196785000Y-106705000D02*
G01*
X197285000Y-106705000D01*
X197285000Y-106205000D01*
X196785000Y-106205000D01*
X196785000Y-106705000D01*
X196785000Y-106705000D01*
G37*
X196785000Y-106705000D02*
X197285000Y-106705000D01*
X197285000Y-106205000D01*
X196785000Y-106205000D01*
X196785000Y-106705000D01*
G36*
X194785000Y-106705000D02*
G01*
X195285000Y-106705000D01*
X195285000Y-106205000D01*
X194785000Y-106205000D01*
X194785000Y-106705000D01*
X194785000Y-106705000D01*
G37*
X194785000Y-106705000D02*
X195285000Y-106705000D01*
X195285000Y-106205000D01*
X194785000Y-106205000D01*
X194785000Y-106705000D01*
G36*
X192785000Y-106705000D02*
G01*
X193285000Y-106705000D01*
X193285000Y-106205000D01*
X192785000Y-106205000D01*
X192785000Y-106705000D01*
X192785000Y-106705000D01*
G37*
X192785000Y-106705000D02*
X193285000Y-106705000D01*
X193285000Y-106205000D01*
X192785000Y-106205000D01*
X192785000Y-106705000D01*
G36*
X192285000Y-106705000D02*
G01*
X192785000Y-106705000D01*
X192785000Y-106205000D01*
X192285000Y-106205000D01*
X192285000Y-106705000D01*
X192285000Y-106705000D01*
G37*
X192285000Y-106705000D02*
X192785000Y-106705000D01*
X192785000Y-106205000D01*
X192285000Y-106205000D01*
X192285000Y-106705000D01*
G36*
X190785000Y-106705000D02*
G01*
X191285000Y-106705000D01*
X191285000Y-106205000D01*
X190785000Y-106205000D01*
X190785000Y-106705000D01*
X190785000Y-106705000D01*
G37*
X190785000Y-106705000D02*
X191285000Y-106705000D01*
X191285000Y-106205000D01*
X190785000Y-106205000D01*
X190785000Y-106705000D01*
G36*
X187785000Y-106705000D02*
G01*
X188285000Y-106705000D01*
X188285000Y-106205000D01*
X187785000Y-106205000D01*
X187785000Y-106705000D01*
X187785000Y-106705000D01*
G37*
X187785000Y-106705000D02*
X188285000Y-106705000D01*
X188285000Y-106205000D01*
X187785000Y-106205000D01*
X187785000Y-106705000D01*
G36*
X184785000Y-106705000D02*
G01*
X185285000Y-106705000D01*
X185285000Y-106205000D01*
X184785000Y-106205000D01*
X184785000Y-106705000D01*
X184785000Y-106705000D01*
G37*
X184785000Y-106705000D02*
X185285000Y-106705000D01*
X185285000Y-106205000D01*
X184785000Y-106205000D01*
X184785000Y-106705000D01*
G36*
X196785000Y-107205000D02*
G01*
X197285000Y-107205000D01*
X197285000Y-106705000D01*
X196785000Y-106705000D01*
X196785000Y-107205000D01*
X196785000Y-107205000D01*
G37*
X196785000Y-107205000D02*
X197285000Y-107205000D01*
X197285000Y-106705000D01*
X196785000Y-106705000D01*
X196785000Y-107205000D01*
G36*
X196285000Y-107205000D02*
G01*
X196785000Y-107205000D01*
X196785000Y-106705000D01*
X196285000Y-106705000D01*
X196285000Y-107205000D01*
X196285000Y-107205000D01*
G37*
X196285000Y-107205000D02*
X196785000Y-107205000D01*
X196785000Y-106705000D01*
X196285000Y-106705000D01*
X196285000Y-107205000D01*
G36*
X195785000Y-107205000D02*
G01*
X196285000Y-107205000D01*
X196285000Y-106705000D01*
X195785000Y-106705000D01*
X195785000Y-107205000D01*
X195785000Y-107205000D01*
G37*
X195785000Y-107205000D02*
X196285000Y-107205000D01*
X196285000Y-106705000D01*
X195785000Y-106705000D01*
X195785000Y-107205000D01*
G36*
X194785000Y-107205000D02*
G01*
X195285000Y-107205000D01*
X195285000Y-106705000D01*
X194785000Y-106705000D01*
X194785000Y-107205000D01*
X194785000Y-107205000D01*
G37*
X194785000Y-107205000D02*
X195285000Y-107205000D01*
X195285000Y-106705000D01*
X194785000Y-106705000D01*
X194785000Y-107205000D01*
G36*
X193785000Y-107205000D02*
G01*
X194285000Y-107205000D01*
X194285000Y-106705000D01*
X193785000Y-106705000D01*
X193785000Y-107205000D01*
X193785000Y-107205000D01*
G37*
X193785000Y-107205000D02*
X194285000Y-107205000D01*
X194285000Y-106705000D01*
X193785000Y-106705000D01*
X193785000Y-107205000D01*
G36*
X192785000Y-107205000D02*
G01*
X193285000Y-107205000D01*
X193285000Y-106705000D01*
X192785000Y-106705000D01*
X192785000Y-107205000D01*
X192785000Y-107205000D01*
G37*
X192785000Y-107205000D02*
X193285000Y-107205000D01*
X193285000Y-106705000D01*
X192785000Y-106705000D01*
X192785000Y-107205000D01*
G36*
X190785000Y-107205000D02*
G01*
X191285000Y-107205000D01*
X191285000Y-106705000D01*
X190785000Y-106705000D01*
X190785000Y-107205000D01*
X190785000Y-107205000D01*
G37*
X190785000Y-107205000D02*
X191285000Y-107205000D01*
X191285000Y-106705000D01*
X190785000Y-106705000D01*
X190785000Y-107205000D01*
G36*
X189785000Y-107205000D02*
G01*
X190285000Y-107205000D01*
X190285000Y-106705000D01*
X189785000Y-106705000D01*
X189785000Y-107205000D01*
X189785000Y-107205000D01*
G37*
X189785000Y-107205000D02*
X190285000Y-107205000D01*
X190285000Y-106705000D01*
X189785000Y-106705000D01*
X189785000Y-107205000D01*
G36*
X189285000Y-107205000D02*
G01*
X189785000Y-107205000D01*
X189785000Y-106705000D01*
X189285000Y-106705000D01*
X189285000Y-107205000D01*
X189285000Y-107205000D01*
G37*
X189285000Y-107205000D02*
X189785000Y-107205000D01*
X189785000Y-106705000D01*
X189285000Y-106705000D01*
X189285000Y-107205000D01*
G36*
X187785000Y-107205000D02*
G01*
X188285000Y-107205000D01*
X188285000Y-106705000D01*
X187785000Y-106705000D01*
X187785000Y-107205000D01*
X187785000Y-107205000D01*
G37*
X187785000Y-107205000D02*
X188285000Y-107205000D01*
X188285000Y-106705000D01*
X187785000Y-106705000D01*
X187785000Y-107205000D01*
G36*
X187285000Y-107205000D02*
G01*
X187785000Y-107205000D01*
X187785000Y-106705000D01*
X187285000Y-106705000D01*
X187285000Y-107205000D01*
X187285000Y-107205000D01*
G37*
X187285000Y-107205000D02*
X187785000Y-107205000D01*
X187785000Y-106705000D01*
X187285000Y-106705000D01*
X187285000Y-107205000D01*
G36*
X186785000Y-107205000D02*
G01*
X187285000Y-107205000D01*
X187285000Y-106705000D01*
X186785000Y-106705000D01*
X186785000Y-107205000D01*
X186785000Y-107205000D01*
G37*
X186785000Y-107205000D02*
X187285000Y-107205000D01*
X187285000Y-106705000D01*
X186785000Y-106705000D01*
X186785000Y-107205000D01*
G36*
X186285000Y-107205000D02*
G01*
X186785000Y-107205000D01*
X186785000Y-106705000D01*
X186285000Y-106705000D01*
X186285000Y-107205000D01*
X186285000Y-107205000D01*
G37*
X186285000Y-107205000D02*
X186785000Y-107205000D01*
X186785000Y-106705000D01*
X186285000Y-106705000D01*
X186285000Y-107205000D01*
G36*
X185785000Y-107205000D02*
G01*
X186285000Y-107205000D01*
X186285000Y-106705000D01*
X185785000Y-106705000D01*
X185785000Y-107205000D01*
X185785000Y-107205000D01*
G37*
X185785000Y-107205000D02*
X186285000Y-107205000D01*
X186285000Y-106705000D01*
X185785000Y-106705000D01*
X185785000Y-107205000D01*
G36*
X185285000Y-107205000D02*
G01*
X185785000Y-107205000D01*
X185785000Y-106705000D01*
X185285000Y-106705000D01*
X185285000Y-107205000D01*
X185285000Y-107205000D01*
G37*
X185285000Y-107205000D02*
X185785000Y-107205000D01*
X185785000Y-106705000D01*
X185285000Y-106705000D01*
X185285000Y-107205000D01*
G36*
X184785000Y-107205000D02*
G01*
X185285000Y-107205000D01*
X185285000Y-106705000D01*
X184785000Y-106705000D01*
X184785000Y-107205000D01*
X184785000Y-107205000D01*
G37*
X184785000Y-107205000D02*
X185285000Y-107205000D01*
X185285000Y-106705000D01*
X184785000Y-106705000D01*
X184785000Y-107205000D01*
G36*
X196785000Y-107705000D02*
G01*
X197285000Y-107705000D01*
X197285000Y-107205000D01*
X196785000Y-107205000D01*
X196785000Y-107705000D01*
X196785000Y-107705000D01*
G37*
X196785000Y-107705000D02*
X197285000Y-107705000D01*
X197285000Y-107205000D01*
X196785000Y-107205000D01*
X196785000Y-107705000D01*
G36*
X195785000Y-107705000D02*
G01*
X196285000Y-107705000D01*
X196285000Y-107205000D01*
X195785000Y-107205000D01*
X195785000Y-107705000D01*
X195785000Y-107705000D01*
G37*
X195785000Y-107705000D02*
X196285000Y-107705000D01*
X196285000Y-107205000D01*
X195785000Y-107205000D01*
X195785000Y-107705000D01*
G36*
X194785000Y-107705000D02*
G01*
X195285000Y-107705000D01*
X195285000Y-107205000D01*
X194785000Y-107205000D01*
X194785000Y-107705000D01*
X194785000Y-107705000D01*
G37*
X194785000Y-107705000D02*
X195285000Y-107705000D01*
X195285000Y-107205000D01*
X194785000Y-107205000D01*
X194785000Y-107705000D01*
G36*
X192785000Y-107705000D02*
G01*
X193285000Y-107705000D01*
X193285000Y-107205000D01*
X192785000Y-107205000D01*
X192785000Y-107705000D01*
X192785000Y-107705000D01*
G37*
X192785000Y-107705000D02*
X193285000Y-107705000D01*
X193285000Y-107205000D01*
X192785000Y-107205000D01*
X192785000Y-107705000D01*
G36*
X190785000Y-107705000D02*
G01*
X191285000Y-107705000D01*
X191285000Y-107205000D01*
X190785000Y-107205000D01*
X190785000Y-107705000D01*
X190785000Y-107705000D01*
G37*
X190785000Y-107705000D02*
X191285000Y-107705000D01*
X191285000Y-107205000D01*
X190785000Y-107205000D01*
X190785000Y-107705000D01*
G36*
X190285000Y-107705000D02*
G01*
X190785000Y-107705000D01*
X190785000Y-107205000D01*
X190285000Y-107205000D01*
X190285000Y-107705000D01*
X190285000Y-107705000D01*
G37*
X190285000Y-107705000D02*
X190785000Y-107705000D01*
X190785000Y-107205000D01*
X190285000Y-107205000D01*
X190285000Y-107705000D01*
G36*
X188785000Y-107705000D02*
G01*
X189285000Y-107705000D01*
X189285000Y-107205000D01*
X188785000Y-107205000D01*
X188785000Y-107705000D01*
X188785000Y-107705000D01*
G37*
X188785000Y-107705000D02*
X189285000Y-107705000D01*
X189285000Y-107205000D01*
X188785000Y-107205000D01*
X188785000Y-107705000D01*
G36*
X196785000Y-108205000D02*
G01*
X197285000Y-108205000D01*
X197285000Y-107705000D01*
X196785000Y-107705000D01*
X196785000Y-108205000D01*
X196785000Y-108205000D01*
G37*
X196785000Y-108205000D02*
X197285000Y-108205000D01*
X197285000Y-107705000D01*
X196785000Y-107705000D01*
X196785000Y-108205000D01*
G36*
X196285000Y-108205000D02*
G01*
X196785000Y-108205000D01*
X196785000Y-107705000D01*
X196285000Y-107705000D01*
X196285000Y-108205000D01*
X196285000Y-108205000D01*
G37*
X196285000Y-108205000D02*
X196785000Y-108205000D01*
X196785000Y-107705000D01*
X196285000Y-107705000D01*
X196285000Y-108205000D01*
G36*
X195785000Y-108205000D02*
G01*
X196285000Y-108205000D01*
X196285000Y-107705000D01*
X195785000Y-107705000D01*
X195785000Y-108205000D01*
X195785000Y-108205000D01*
G37*
X195785000Y-108205000D02*
X196285000Y-108205000D01*
X196285000Y-107705000D01*
X195785000Y-107705000D01*
X195785000Y-108205000D01*
G36*
X195285000Y-108205000D02*
G01*
X195785000Y-108205000D01*
X195785000Y-107705000D01*
X195285000Y-107705000D01*
X195285000Y-108205000D01*
X195285000Y-108205000D01*
G37*
X195285000Y-108205000D02*
X195785000Y-108205000D01*
X195785000Y-107705000D01*
X195285000Y-107705000D01*
X195285000Y-108205000D01*
G36*
X194785000Y-108205000D02*
G01*
X195285000Y-108205000D01*
X195285000Y-107705000D01*
X194785000Y-107705000D01*
X194785000Y-108205000D01*
X194785000Y-108205000D01*
G37*
X194785000Y-108205000D02*
X195285000Y-108205000D01*
X195285000Y-107705000D01*
X194785000Y-107705000D01*
X194785000Y-108205000D01*
G36*
X194285000Y-108205000D02*
G01*
X194785000Y-108205000D01*
X194785000Y-107705000D01*
X194285000Y-107705000D01*
X194285000Y-108205000D01*
X194285000Y-108205000D01*
G37*
X194285000Y-108205000D02*
X194785000Y-108205000D01*
X194785000Y-107705000D01*
X194285000Y-107705000D01*
X194285000Y-108205000D01*
G36*
X193785000Y-108205000D02*
G01*
X194285000Y-108205000D01*
X194285000Y-107705000D01*
X193785000Y-107705000D01*
X193785000Y-108205000D01*
X193785000Y-108205000D01*
G37*
X193785000Y-108205000D02*
X194285000Y-108205000D01*
X194285000Y-107705000D01*
X193785000Y-107705000D01*
X193785000Y-108205000D01*
G36*
X193285000Y-108205000D02*
G01*
X193785000Y-108205000D01*
X193785000Y-107705000D01*
X193285000Y-107705000D01*
X193285000Y-108205000D01*
X193285000Y-108205000D01*
G37*
X193285000Y-108205000D02*
X193785000Y-108205000D01*
X193785000Y-107705000D01*
X193285000Y-107705000D01*
X193285000Y-108205000D01*
G36*
X192785000Y-108205000D02*
G01*
X193285000Y-108205000D01*
X193285000Y-107705000D01*
X192785000Y-107705000D01*
X192785000Y-108205000D01*
X192785000Y-108205000D01*
G37*
X192785000Y-108205000D02*
X193285000Y-108205000D01*
X193285000Y-107705000D01*
X192785000Y-107705000D01*
X192785000Y-108205000D01*
G36*
X191285000Y-108205000D02*
G01*
X191785000Y-108205000D01*
X191785000Y-107705000D01*
X191285000Y-107705000D01*
X191285000Y-108205000D01*
X191285000Y-108205000D01*
G37*
X191285000Y-108205000D02*
X191785000Y-108205000D01*
X191785000Y-107705000D01*
X191285000Y-107705000D01*
X191285000Y-108205000D01*
G36*
X190785000Y-108205000D02*
G01*
X191285000Y-108205000D01*
X191285000Y-107705000D01*
X190785000Y-107705000D01*
X190785000Y-108205000D01*
X190785000Y-108205000D01*
G37*
X190785000Y-108205000D02*
X191285000Y-108205000D01*
X191285000Y-107705000D01*
X190785000Y-107705000D01*
X190785000Y-108205000D01*
G36*
X190285000Y-108205000D02*
G01*
X190785000Y-108205000D01*
X190785000Y-107705000D01*
X190285000Y-107705000D01*
X190285000Y-108205000D01*
X190285000Y-108205000D01*
G37*
X190285000Y-108205000D02*
X190785000Y-108205000D01*
X190785000Y-107705000D01*
X190285000Y-107705000D01*
X190285000Y-108205000D01*
G36*
X189785000Y-108205000D02*
G01*
X190285000Y-108205000D01*
X190285000Y-107705000D01*
X189785000Y-107705000D01*
X189785000Y-108205000D01*
X189785000Y-108205000D01*
G37*
X189785000Y-108205000D02*
X190285000Y-108205000D01*
X190285000Y-107705000D01*
X189785000Y-107705000D01*
X189785000Y-108205000D01*
G36*
X189285000Y-108205000D02*
G01*
X189785000Y-108205000D01*
X189785000Y-107705000D01*
X189285000Y-107705000D01*
X189285000Y-108205000D01*
X189285000Y-108205000D01*
G37*
X189285000Y-108205000D02*
X189785000Y-108205000D01*
X189785000Y-107705000D01*
X189285000Y-107705000D01*
X189285000Y-108205000D01*
G36*
X187785000Y-108205000D02*
G01*
X188285000Y-108205000D01*
X188285000Y-107705000D01*
X187785000Y-107705000D01*
X187785000Y-108205000D01*
X187785000Y-108205000D01*
G37*
X187785000Y-108205000D02*
X188285000Y-108205000D01*
X188285000Y-107705000D01*
X187785000Y-107705000D01*
X187785000Y-108205000D01*
G36*
X187285000Y-108205000D02*
G01*
X187785000Y-108205000D01*
X187785000Y-107705000D01*
X187285000Y-107705000D01*
X187285000Y-108205000D01*
X187285000Y-108205000D01*
G37*
X187285000Y-108205000D02*
X187785000Y-108205000D01*
X187785000Y-107705000D01*
X187285000Y-107705000D01*
X187285000Y-108205000D01*
G36*
X186785000Y-108205000D02*
G01*
X187285000Y-108205000D01*
X187285000Y-107705000D01*
X186785000Y-107705000D01*
X186785000Y-108205000D01*
X186785000Y-108205000D01*
G37*
X186785000Y-108205000D02*
X187285000Y-108205000D01*
X187285000Y-107705000D01*
X186785000Y-107705000D01*
X186785000Y-108205000D01*
G36*
X186285000Y-108205000D02*
G01*
X186785000Y-108205000D01*
X186785000Y-107705000D01*
X186285000Y-107705000D01*
X186285000Y-108205000D01*
X186285000Y-108205000D01*
G37*
X186285000Y-108205000D02*
X186785000Y-108205000D01*
X186785000Y-107705000D01*
X186285000Y-107705000D01*
X186285000Y-108205000D01*
G36*
X196785000Y-108705000D02*
G01*
X197285000Y-108705000D01*
X197285000Y-108205000D01*
X196785000Y-108205000D01*
X196785000Y-108705000D01*
X196785000Y-108705000D01*
G37*
X196785000Y-108705000D02*
X197285000Y-108705000D01*
X197285000Y-108205000D01*
X196785000Y-108205000D01*
X196785000Y-108705000D01*
G36*
X194785000Y-108705000D02*
G01*
X195285000Y-108705000D01*
X195285000Y-108205000D01*
X194785000Y-108205000D01*
X194785000Y-108705000D01*
X194785000Y-108705000D01*
G37*
X194785000Y-108705000D02*
X195285000Y-108705000D01*
X195285000Y-108205000D01*
X194785000Y-108205000D01*
X194785000Y-108705000D01*
G36*
X194285000Y-108705000D02*
G01*
X194785000Y-108705000D01*
X194785000Y-108205000D01*
X194285000Y-108205000D01*
X194285000Y-108705000D01*
X194285000Y-108705000D01*
G37*
X194285000Y-108705000D02*
X194785000Y-108705000D01*
X194785000Y-108205000D01*
X194285000Y-108205000D01*
X194285000Y-108705000D01*
G36*
X193785000Y-108705000D02*
G01*
X194285000Y-108705000D01*
X194285000Y-108205000D01*
X193785000Y-108205000D01*
X193785000Y-108705000D01*
X193785000Y-108705000D01*
G37*
X193785000Y-108705000D02*
X194285000Y-108705000D01*
X194285000Y-108205000D01*
X193785000Y-108205000D01*
X193785000Y-108705000D01*
G36*
X193285000Y-108705000D02*
G01*
X193785000Y-108705000D01*
X193785000Y-108205000D01*
X193285000Y-108205000D01*
X193285000Y-108705000D01*
X193285000Y-108705000D01*
G37*
X193285000Y-108705000D02*
X193785000Y-108705000D01*
X193785000Y-108205000D01*
X193285000Y-108205000D01*
X193285000Y-108705000D01*
G36*
X192785000Y-108705000D02*
G01*
X193285000Y-108705000D01*
X193285000Y-108205000D01*
X192785000Y-108205000D01*
X192785000Y-108705000D01*
X192785000Y-108705000D01*
G37*
X192785000Y-108705000D02*
X193285000Y-108705000D01*
X193285000Y-108205000D01*
X192785000Y-108205000D01*
X192785000Y-108705000D01*
G36*
X192285000Y-108705000D02*
G01*
X192785000Y-108705000D01*
X192785000Y-108205000D01*
X192285000Y-108205000D01*
X192285000Y-108705000D01*
X192285000Y-108705000D01*
G37*
X192285000Y-108705000D02*
X192785000Y-108705000D01*
X192785000Y-108205000D01*
X192285000Y-108205000D01*
X192285000Y-108705000D01*
G36*
X190785000Y-108705000D02*
G01*
X191285000Y-108705000D01*
X191285000Y-108205000D01*
X190785000Y-108205000D01*
X190785000Y-108705000D01*
X190785000Y-108705000D01*
G37*
X190785000Y-108705000D02*
X191285000Y-108705000D01*
X191285000Y-108205000D01*
X190785000Y-108205000D01*
X190785000Y-108705000D01*
G36*
X190285000Y-108705000D02*
G01*
X190785000Y-108705000D01*
X190785000Y-108205000D01*
X190285000Y-108205000D01*
X190285000Y-108705000D01*
X190285000Y-108705000D01*
G37*
X190285000Y-108705000D02*
X190785000Y-108705000D01*
X190785000Y-108205000D01*
X190285000Y-108205000D01*
X190285000Y-108705000D01*
G36*
X189785000Y-108705000D02*
G01*
X190285000Y-108705000D01*
X190285000Y-108205000D01*
X189785000Y-108205000D01*
X189785000Y-108705000D01*
X189785000Y-108705000D01*
G37*
X189785000Y-108705000D02*
X190285000Y-108705000D01*
X190285000Y-108205000D01*
X189785000Y-108205000D01*
X189785000Y-108705000D01*
G36*
X189285000Y-108705000D02*
G01*
X189785000Y-108705000D01*
X189785000Y-108205000D01*
X189285000Y-108205000D01*
X189285000Y-108705000D01*
X189285000Y-108705000D01*
G37*
X189285000Y-108705000D02*
X189785000Y-108705000D01*
X189785000Y-108205000D01*
X189285000Y-108205000D01*
X189285000Y-108705000D01*
G36*
X188785000Y-108705000D02*
G01*
X189285000Y-108705000D01*
X189285000Y-108205000D01*
X188785000Y-108205000D01*
X188785000Y-108705000D01*
X188785000Y-108705000D01*
G37*
X188785000Y-108705000D02*
X189285000Y-108705000D01*
X189285000Y-108205000D01*
X188785000Y-108205000D01*
X188785000Y-108705000D01*
G36*
X186285000Y-108705000D02*
G01*
X186785000Y-108705000D01*
X186785000Y-108205000D01*
X186285000Y-108205000D01*
X186285000Y-108705000D01*
X186285000Y-108705000D01*
G37*
X186285000Y-108705000D02*
X186785000Y-108705000D01*
X186785000Y-108205000D01*
X186285000Y-108205000D01*
X186285000Y-108705000D01*
G36*
X185785000Y-108705000D02*
G01*
X186285000Y-108705000D01*
X186285000Y-108205000D01*
X185785000Y-108205000D01*
X185785000Y-108705000D01*
X185785000Y-108705000D01*
G37*
X185785000Y-108705000D02*
X186285000Y-108705000D01*
X186285000Y-108205000D01*
X185785000Y-108205000D01*
X185785000Y-108705000D01*
G36*
X184785000Y-108705000D02*
G01*
X185285000Y-108705000D01*
X185285000Y-108205000D01*
X184785000Y-108205000D01*
X184785000Y-108705000D01*
X184785000Y-108705000D01*
G37*
X184785000Y-108705000D02*
X185285000Y-108705000D01*
X185285000Y-108205000D01*
X184785000Y-108205000D01*
X184785000Y-108705000D01*
G36*
X196285000Y-109205000D02*
G01*
X196785000Y-109205000D01*
X196785000Y-108705000D01*
X196285000Y-108705000D01*
X196285000Y-109205000D01*
X196285000Y-109205000D01*
G37*
X196285000Y-109205000D02*
X196785000Y-109205000D01*
X196785000Y-108705000D01*
X196285000Y-108705000D01*
X196285000Y-109205000D01*
G36*
X195785000Y-109205000D02*
G01*
X196285000Y-109205000D01*
X196285000Y-108705000D01*
X195785000Y-108705000D01*
X195785000Y-109205000D01*
X195785000Y-109205000D01*
G37*
X195785000Y-109205000D02*
X196285000Y-109205000D01*
X196285000Y-108705000D01*
X195785000Y-108705000D01*
X195785000Y-109205000D01*
G36*
X194785000Y-109205000D02*
G01*
X195285000Y-109205000D01*
X195285000Y-108705000D01*
X194785000Y-108705000D01*
X194785000Y-109205000D01*
X194785000Y-109205000D01*
G37*
X194785000Y-109205000D02*
X195285000Y-109205000D01*
X195285000Y-108705000D01*
X194785000Y-108705000D01*
X194785000Y-109205000D01*
G36*
X191785000Y-109205000D02*
G01*
X192285000Y-109205000D01*
X192285000Y-108705000D01*
X191785000Y-108705000D01*
X191785000Y-109205000D01*
X191785000Y-109205000D01*
G37*
X191785000Y-109205000D02*
X192285000Y-109205000D01*
X192285000Y-108705000D01*
X191785000Y-108705000D01*
X191785000Y-109205000D01*
G36*
X191285000Y-109205000D02*
G01*
X191785000Y-109205000D01*
X191785000Y-108705000D01*
X191285000Y-108705000D01*
X191285000Y-109205000D01*
X191285000Y-109205000D01*
G37*
X191285000Y-109205000D02*
X191785000Y-109205000D01*
X191785000Y-108705000D01*
X191285000Y-108705000D01*
X191285000Y-109205000D01*
G36*
X190785000Y-109205000D02*
G01*
X191285000Y-109205000D01*
X191285000Y-108705000D01*
X190785000Y-108705000D01*
X190785000Y-109205000D01*
X190785000Y-109205000D01*
G37*
X190785000Y-109205000D02*
X191285000Y-109205000D01*
X191285000Y-108705000D01*
X190785000Y-108705000D01*
X190785000Y-109205000D01*
G36*
X189785000Y-109205000D02*
G01*
X190285000Y-109205000D01*
X190285000Y-108705000D01*
X189785000Y-108705000D01*
X189785000Y-109205000D01*
X189785000Y-109205000D01*
G37*
X189785000Y-109205000D02*
X190285000Y-109205000D01*
X190285000Y-108705000D01*
X189785000Y-108705000D01*
X189785000Y-109205000D01*
G36*
X189285000Y-109205000D02*
G01*
X189785000Y-109205000D01*
X189785000Y-108705000D01*
X189285000Y-108705000D01*
X189285000Y-109205000D01*
X189285000Y-109205000D01*
G37*
X189285000Y-109205000D02*
X189785000Y-109205000D01*
X189785000Y-108705000D01*
X189285000Y-108705000D01*
X189285000Y-109205000D01*
G36*
X187785000Y-109205000D02*
G01*
X188285000Y-109205000D01*
X188285000Y-108705000D01*
X187785000Y-108705000D01*
X187785000Y-109205000D01*
X187785000Y-109205000D01*
G37*
X187785000Y-109205000D02*
X188285000Y-109205000D01*
X188285000Y-108705000D01*
X187785000Y-108705000D01*
X187785000Y-109205000D01*
G36*
X187285000Y-109205000D02*
G01*
X187785000Y-109205000D01*
X187785000Y-108705000D01*
X187285000Y-108705000D01*
X187285000Y-109205000D01*
X187285000Y-109205000D01*
G37*
X187285000Y-109205000D02*
X187785000Y-109205000D01*
X187785000Y-108705000D01*
X187285000Y-108705000D01*
X187285000Y-109205000D01*
G36*
X186785000Y-109205000D02*
G01*
X187285000Y-109205000D01*
X187285000Y-108705000D01*
X186785000Y-108705000D01*
X186785000Y-109205000D01*
X186785000Y-109205000D01*
G37*
X186785000Y-109205000D02*
X187285000Y-109205000D01*
X187285000Y-108705000D01*
X186785000Y-108705000D01*
X186785000Y-109205000D01*
G36*
X186285000Y-109205000D02*
G01*
X186785000Y-109205000D01*
X186785000Y-108705000D01*
X186285000Y-108705000D01*
X186285000Y-109205000D01*
X186285000Y-109205000D01*
G37*
X186285000Y-109205000D02*
X186785000Y-109205000D01*
X186785000Y-108705000D01*
X186285000Y-108705000D01*
X186285000Y-109205000D01*
G36*
X185285000Y-109205000D02*
G01*
X185785000Y-109205000D01*
X185785000Y-108705000D01*
X185285000Y-108705000D01*
X185285000Y-109205000D01*
X185285000Y-109205000D01*
G37*
X185285000Y-109205000D02*
X185785000Y-109205000D01*
X185785000Y-108705000D01*
X185285000Y-108705000D01*
X185285000Y-109205000D01*
G36*
X196785000Y-109705000D02*
G01*
X197285000Y-109705000D01*
X197285000Y-109205000D01*
X196785000Y-109205000D01*
X196785000Y-109705000D01*
X196785000Y-109705000D01*
G37*
X196785000Y-109705000D02*
X197285000Y-109705000D01*
X197285000Y-109205000D01*
X196785000Y-109205000D01*
X196785000Y-109705000D01*
G36*
X194785000Y-109705000D02*
G01*
X195285000Y-109705000D01*
X195285000Y-109205000D01*
X194785000Y-109205000D01*
X194785000Y-109705000D01*
X194785000Y-109705000D01*
G37*
X194785000Y-109705000D02*
X195285000Y-109705000D01*
X195285000Y-109205000D01*
X194785000Y-109205000D01*
X194785000Y-109705000D01*
G36*
X194285000Y-109705000D02*
G01*
X194785000Y-109705000D01*
X194785000Y-109205000D01*
X194285000Y-109205000D01*
X194285000Y-109705000D01*
X194285000Y-109705000D01*
G37*
X194285000Y-109705000D02*
X194785000Y-109705000D01*
X194785000Y-109205000D01*
X194285000Y-109205000D01*
X194285000Y-109705000D01*
G36*
X193785000Y-109705000D02*
G01*
X194285000Y-109705000D01*
X194285000Y-109205000D01*
X193785000Y-109205000D01*
X193785000Y-109705000D01*
X193785000Y-109705000D01*
G37*
X193785000Y-109705000D02*
X194285000Y-109705000D01*
X194285000Y-109205000D01*
X193785000Y-109205000D01*
X193785000Y-109705000D01*
G36*
X193285000Y-109705000D02*
G01*
X193785000Y-109705000D01*
X193785000Y-109205000D01*
X193285000Y-109205000D01*
X193285000Y-109705000D01*
X193285000Y-109705000D01*
G37*
X193285000Y-109705000D02*
X193785000Y-109705000D01*
X193785000Y-109205000D01*
X193285000Y-109205000D01*
X193285000Y-109705000D01*
G36*
X192785000Y-109705000D02*
G01*
X193285000Y-109705000D01*
X193285000Y-109205000D01*
X192785000Y-109205000D01*
X192785000Y-109705000D01*
X192785000Y-109705000D01*
G37*
X192785000Y-109705000D02*
X193285000Y-109705000D01*
X193285000Y-109205000D01*
X192785000Y-109205000D01*
X192785000Y-109705000D01*
G36*
X192285000Y-109705000D02*
G01*
X192785000Y-109705000D01*
X192785000Y-109205000D01*
X192285000Y-109205000D01*
X192285000Y-109705000D01*
X192285000Y-109705000D01*
G37*
X192285000Y-109705000D02*
X192785000Y-109705000D01*
X192785000Y-109205000D01*
X192285000Y-109205000D01*
X192285000Y-109705000D01*
G36*
X190785000Y-109705000D02*
G01*
X191285000Y-109705000D01*
X191285000Y-109205000D01*
X190785000Y-109205000D01*
X190785000Y-109705000D01*
X190785000Y-109705000D01*
G37*
X190785000Y-109705000D02*
X191285000Y-109705000D01*
X191285000Y-109205000D01*
X190785000Y-109205000D01*
X190785000Y-109705000D01*
G36*
X188785000Y-109705000D02*
G01*
X189285000Y-109705000D01*
X189285000Y-109205000D01*
X188785000Y-109205000D01*
X188785000Y-109705000D01*
X188785000Y-109705000D01*
G37*
X188785000Y-109705000D02*
X189285000Y-109705000D01*
X189285000Y-109205000D01*
X188785000Y-109205000D01*
X188785000Y-109705000D01*
G36*
X187285000Y-109705000D02*
G01*
X187785000Y-109705000D01*
X187785000Y-109205000D01*
X187285000Y-109205000D01*
X187285000Y-109705000D01*
X187285000Y-109705000D01*
G37*
X187285000Y-109705000D02*
X187785000Y-109705000D01*
X187785000Y-109205000D01*
X187285000Y-109205000D01*
X187285000Y-109705000D01*
G36*
X186785000Y-109705000D02*
G01*
X187285000Y-109705000D01*
X187285000Y-109205000D01*
X186785000Y-109205000D01*
X186785000Y-109705000D01*
X186785000Y-109705000D01*
G37*
X186785000Y-109705000D02*
X187285000Y-109705000D01*
X187285000Y-109205000D01*
X186785000Y-109205000D01*
X186785000Y-109705000D01*
G36*
X185285000Y-109705000D02*
G01*
X185785000Y-109705000D01*
X185785000Y-109205000D01*
X185285000Y-109205000D01*
X185285000Y-109705000D01*
X185285000Y-109705000D01*
G37*
X185285000Y-109705000D02*
X185785000Y-109705000D01*
X185785000Y-109205000D01*
X185285000Y-109205000D01*
X185285000Y-109705000D01*
G36*
X196785000Y-110205000D02*
G01*
X197285000Y-110205000D01*
X197285000Y-109705000D01*
X196785000Y-109705000D01*
X196785000Y-110205000D01*
X196785000Y-110205000D01*
G37*
X196785000Y-110205000D02*
X197285000Y-110205000D01*
X197285000Y-109705000D01*
X196785000Y-109705000D01*
X196785000Y-110205000D01*
G36*
X196285000Y-110205000D02*
G01*
X196785000Y-110205000D01*
X196785000Y-109705000D01*
X196285000Y-109705000D01*
X196285000Y-110205000D01*
X196285000Y-110205000D01*
G37*
X196285000Y-110205000D02*
X196785000Y-110205000D01*
X196785000Y-109705000D01*
X196285000Y-109705000D01*
X196285000Y-110205000D01*
G36*
X195785000Y-110205000D02*
G01*
X196285000Y-110205000D01*
X196285000Y-109705000D01*
X195785000Y-109705000D01*
X195785000Y-110205000D01*
X195785000Y-110205000D01*
G37*
X195785000Y-110205000D02*
X196285000Y-110205000D01*
X196285000Y-109705000D01*
X195785000Y-109705000D01*
X195785000Y-110205000D01*
G36*
X194785000Y-110205000D02*
G01*
X195285000Y-110205000D01*
X195285000Y-109705000D01*
X194785000Y-109705000D01*
X194785000Y-110205000D01*
X194785000Y-110205000D01*
G37*
X194785000Y-110205000D02*
X195285000Y-110205000D01*
X195285000Y-109705000D01*
X194785000Y-109705000D01*
X194785000Y-110205000D01*
G36*
X193785000Y-110205000D02*
G01*
X194285000Y-110205000D01*
X194285000Y-109705000D01*
X193785000Y-109705000D01*
X193785000Y-110205000D01*
X193785000Y-110205000D01*
G37*
X193785000Y-110205000D02*
X194285000Y-110205000D01*
X194285000Y-109705000D01*
X193785000Y-109705000D01*
X193785000Y-110205000D01*
G36*
X193285000Y-110205000D02*
G01*
X193785000Y-110205000D01*
X193785000Y-109705000D01*
X193285000Y-109705000D01*
X193285000Y-110205000D01*
X193285000Y-110205000D01*
G37*
X193285000Y-110205000D02*
X193785000Y-110205000D01*
X193785000Y-109705000D01*
X193285000Y-109705000D01*
X193285000Y-110205000D01*
G36*
X192785000Y-110205000D02*
G01*
X193285000Y-110205000D01*
X193285000Y-109705000D01*
X192785000Y-109705000D01*
X192785000Y-110205000D01*
X192785000Y-110205000D01*
G37*
X192785000Y-110205000D02*
X193285000Y-110205000D01*
X193285000Y-109705000D01*
X192785000Y-109705000D01*
X192785000Y-110205000D01*
G36*
X192285000Y-110205000D02*
G01*
X192785000Y-110205000D01*
X192785000Y-109705000D01*
X192285000Y-109705000D01*
X192285000Y-110205000D01*
X192285000Y-110205000D01*
G37*
X192285000Y-110205000D02*
X192785000Y-110205000D01*
X192785000Y-109705000D01*
X192285000Y-109705000D01*
X192285000Y-110205000D01*
G36*
X191785000Y-110205000D02*
G01*
X192285000Y-110205000D01*
X192285000Y-109705000D01*
X191785000Y-109705000D01*
X191785000Y-110205000D01*
X191785000Y-110205000D01*
G37*
X191785000Y-110205000D02*
X192285000Y-110205000D01*
X192285000Y-109705000D01*
X191785000Y-109705000D01*
X191785000Y-110205000D01*
G36*
X191285000Y-110205000D02*
G01*
X191785000Y-110205000D01*
X191785000Y-109705000D01*
X191285000Y-109705000D01*
X191285000Y-110205000D01*
X191285000Y-110205000D01*
G37*
X191285000Y-110205000D02*
X191785000Y-110205000D01*
X191785000Y-109705000D01*
X191285000Y-109705000D01*
X191285000Y-110205000D01*
G36*
X190785000Y-110205000D02*
G01*
X191285000Y-110205000D01*
X191285000Y-109705000D01*
X190785000Y-109705000D01*
X190785000Y-110205000D01*
X190785000Y-110205000D01*
G37*
X190785000Y-110205000D02*
X191285000Y-110205000D01*
X191285000Y-109705000D01*
X190785000Y-109705000D01*
X190785000Y-110205000D01*
G36*
X189785000Y-110205000D02*
G01*
X190285000Y-110205000D01*
X190285000Y-109705000D01*
X189785000Y-109705000D01*
X189785000Y-110205000D01*
X189785000Y-110205000D01*
G37*
X189785000Y-110205000D02*
X190285000Y-110205000D01*
X190285000Y-109705000D01*
X189785000Y-109705000D01*
X189785000Y-110205000D01*
G36*
X189285000Y-110205000D02*
G01*
X189785000Y-110205000D01*
X189785000Y-109705000D01*
X189285000Y-109705000D01*
X189285000Y-110205000D01*
X189285000Y-110205000D01*
G37*
X189285000Y-110205000D02*
X189785000Y-110205000D01*
X189785000Y-109705000D01*
X189285000Y-109705000D01*
X189285000Y-110205000D01*
G36*
X188785000Y-110205000D02*
G01*
X189285000Y-110205000D01*
X189285000Y-109705000D01*
X188785000Y-109705000D01*
X188785000Y-110205000D01*
X188785000Y-110205000D01*
G37*
X188785000Y-110205000D02*
X189285000Y-110205000D01*
X189285000Y-109705000D01*
X188785000Y-109705000D01*
X188785000Y-110205000D01*
G36*
X187785000Y-110205000D02*
G01*
X188285000Y-110205000D01*
X188285000Y-109705000D01*
X187785000Y-109705000D01*
X187785000Y-110205000D01*
X187785000Y-110205000D01*
G37*
X187785000Y-110205000D02*
X188285000Y-110205000D01*
X188285000Y-109705000D01*
X187785000Y-109705000D01*
X187785000Y-110205000D01*
G36*
X187285000Y-110205000D02*
G01*
X187785000Y-110205000D01*
X187785000Y-109705000D01*
X187285000Y-109705000D01*
X187285000Y-110205000D01*
X187285000Y-110205000D01*
G37*
X187285000Y-110205000D02*
X187785000Y-110205000D01*
X187785000Y-109705000D01*
X187285000Y-109705000D01*
X187285000Y-110205000D01*
G36*
X186785000Y-110205000D02*
G01*
X187285000Y-110205000D01*
X187285000Y-109705000D01*
X186785000Y-109705000D01*
X186785000Y-110205000D01*
X186785000Y-110205000D01*
G37*
X186785000Y-110205000D02*
X187285000Y-110205000D01*
X187285000Y-109705000D01*
X186785000Y-109705000D01*
X186785000Y-110205000D01*
G36*
X186285000Y-110205000D02*
G01*
X186785000Y-110205000D01*
X186785000Y-109705000D01*
X186285000Y-109705000D01*
X186285000Y-110205000D01*
X186285000Y-110205000D01*
G37*
X186285000Y-110205000D02*
X186785000Y-110205000D01*
X186785000Y-109705000D01*
X186285000Y-109705000D01*
X186285000Y-110205000D01*
G36*
X185785000Y-110205000D02*
G01*
X186285000Y-110205000D01*
X186285000Y-109705000D01*
X185785000Y-109705000D01*
X185785000Y-110205000D01*
X185785000Y-110205000D01*
G37*
X185785000Y-110205000D02*
X186285000Y-110205000D01*
X186285000Y-109705000D01*
X185785000Y-109705000D01*
X185785000Y-110205000D01*
G36*
X185285000Y-110205000D02*
G01*
X185785000Y-110205000D01*
X185785000Y-109705000D01*
X185285000Y-109705000D01*
X185285000Y-110205000D01*
X185285000Y-110205000D01*
G37*
X185285000Y-110205000D02*
X185785000Y-110205000D01*
X185785000Y-109705000D01*
X185285000Y-109705000D01*
X185285000Y-110205000D01*
G36*
X195785000Y-110705000D02*
G01*
X196285000Y-110705000D01*
X196285000Y-110205000D01*
X195785000Y-110205000D01*
X195785000Y-110705000D01*
X195785000Y-110705000D01*
G37*
X195785000Y-110705000D02*
X196285000Y-110705000D01*
X196285000Y-110205000D01*
X195785000Y-110205000D01*
X195785000Y-110705000D01*
G36*
X195285000Y-110705000D02*
G01*
X195785000Y-110705000D01*
X195785000Y-110205000D01*
X195285000Y-110205000D01*
X195285000Y-110705000D01*
X195285000Y-110705000D01*
G37*
X195285000Y-110705000D02*
X195785000Y-110705000D01*
X195785000Y-110205000D01*
X195285000Y-110205000D01*
X195285000Y-110705000D01*
G36*
X194285000Y-110705000D02*
G01*
X194785000Y-110705000D01*
X194785000Y-110205000D01*
X194285000Y-110205000D01*
X194285000Y-110705000D01*
X194285000Y-110705000D01*
G37*
X194285000Y-110705000D02*
X194785000Y-110705000D01*
X194785000Y-110205000D01*
X194285000Y-110205000D01*
X194285000Y-110705000D01*
G36*
X192785000Y-110705000D02*
G01*
X193285000Y-110705000D01*
X193285000Y-110205000D01*
X192785000Y-110205000D01*
X192785000Y-110705000D01*
X192785000Y-110705000D01*
G37*
X192785000Y-110705000D02*
X193285000Y-110705000D01*
X193285000Y-110205000D01*
X192785000Y-110205000D01*
X192785000Y-110705000D01*
G36*
X192285000Y-110705000D02*
G01*
X192785000Y-110705000D01*
X192785000Y-110205000D01*
X192285000Y-110205000D01*
X192285000Y-110705000D01*
X192285000Y-110705000D01*
G37*
X192285000Y-110705000D02*
X192785000Y-110705000D01*
X192785000Y-110205000D01*
X192285000Y-110205000D01*
X192285000Y-110705000D01*
G36*
X191785000Y-110705000D02*
G01*
X192285000Y-110705000D01*
X192285000Y-110205000D01*
X191785000Y-110205000D01*
X191785000Y-110705000D01*
X191785000Y-110705000D01*
G37*
X191785000Y-110705000D02*
X192285000Y-110705000D01*
X192285000Y-110205000D01*
X191785000Y-110205000D01*
X191785000Y-110705000D01*
G36*
X191285000Y-110705000D02*
G01*
X191785000Y-110705000D01*
X191785000Y-110205000D01*
X191285000Y-110205000D01*
X191285000Y-110705000D01*
X191285000Y-110705000D01*
G37*
X191285000Y-110705000D02*
X191785000Y-110705000D01*
X191785000Y-110205000D01*
X191285000Y-110205000D01*
X191285000Y-110705000D01*
G36*
X190785000Y-110705000D02*
G01*
X191285000Y-110705000D01*
X191285000Y-110205000D01*
X190785000Y-110205000D01*
X190785000Y-110705000D01*
X190785000Y-110705000D01*
G37*
X190785000Y-110705000D02*
X191285000Y-110705000D01*
X191285000Y-110205000D01*
X190785000Y-110205000D01*
X190785000Y-110705000D01*
G36*
X189785000Y-110705000D02*
G01*
X190285000Y-110705000D01*
X190285000Y-110205000D01*
X189785000Y-110205000D01*
X189785000Y-110705000D01*
X189785000Y-110705000D01*
G37*
X189785000Y-110705000D02*
X190285000Y-110705000D01*
X190285000Y-110205000D01*
X189785000Y-110205000D01*
X189785000Y-110705000D01*
G36*
X189285000Y-110705000D02*
G01*
X189785000Y-110705000D01*
X189785000Y-110205000D01*
X189285000Y-110205000D01*
X189285000Y-110705000D01*
X189285000Y-110705000D01*
G37*
X189285000Y-110705000D02*
X189785000Y-110705000D01*
X189785000Y-110205000D01*
X189285000Y-110205000D01*
X189285000Y-110705000D01*
G36*
X186285000Y-110705000D02*
G01*
X186785000Y-110705000D01*
X186785000Y-110205000D01*
X186285000Y-110205000D01*
X186285000Y-110705000D01*
X186285000Y-110705000D01*
G37*
X186285000Y-110705000D02*
X186785000Y-110705000D01*
X186785000Y-110205000D01*
X186285000Y-110205000D01*
X186285000Y-110705000D01*
G36*
X185285000Y-110705000D02*
G01*
X185785000Y-110705000D01*
X185785000Y-110205000D01*
X185285000Y-110205000D01*
X185285000Y-110705000D01*
X185285000Y-110705000D01*
G37*
X185285000Y-110705000D02*
X185785000Y-110705000D01*
X185785000Y-110205000D01*
X185285000Y-110205000D01*
X185285000Y-110705000D01*
G36*
X184785000Y-110705000D02*
G01*
X185285000Y-110705000D01*
X185285000Y-110205000D01*
X184785000Y-110205000D01*
X184785000Y-110705000D01*
X184785000Y-110705000D01*
G37*
X184785000Y-110705000D02*
X185285000Y-110705000D01*
X185285000Y-110205000D01*
X184785000Y-110205000D01*
X184785000Y-110705000D01*
G36*
X194285000Y-111205000D02*
G01*
X194785000Y-111205000D01*
X194785000Y-110705000D01*
X194285000Y-110705000D01*
X194285000Y-111205000D01*
X194285000Y-111205000D01*
G37*
X194285000Y-111205000D02*
X194785000Y-111205000D01*
X194785000Y-110705000D01*
X194285000Y-110705000D01*
X194285000Y-111205000D01*
G36*
X193785000Y-111205000D02*
G01*
X194285000Y-111205000D01*
X194285000Y-110705000D01*
X193785000Y-110705000D01*
X193785000Y-111205000D01*
X193785000Y-111205000D01*
G37*
X193785000Y-111205000D02*
X194285000Y-111205000D01*
X194285000Y-110705000D01*
X193785000Y-110705000D01*
X193785000Y-111205000D01*
G36*
X193285000Y-111205000D02*
G01*
X193785000Y-111205000D01*
X193785000Y-110705000D01*
X193285000Y-110705000D01*
X193285000Y-111205000D01*
X193285000Y-111205000D01*
G37*
X193285000Y-111205000D02*
X193785000Y-111205000D01*
X193785000Y-110705000D01*
X193285000Y-110705000D01*
X193285000Y-111205000D01*
G36*
X191285000Y-111205000D02*
G01*
X191785000Y-111205000D01*
X191785000Y-110705000D01*
X191285000Y-110705000D01*
X191285000Y-111205000D01*
X191285000Y-111205000D01*
G37*
X191285000Y-111205000D02*
X191785000Y-111205000D01*
X191785000Y-110705000D01*
X191285000Y-110705000D01*
X191285000Y-111205000D01*
G36*
X190785000Y-111205000D02*
G01*
X191285000Y-111205000D01*
X191285000Y-110705000D01*
X190785000Y-110705000D01*
X190785000Y-111205000D01*
X190785000Y-111205000D01*
G37*
X190785000Y-111205000D02*
X191285000Y-111205000D01*
X191285000Y-110705000D01*
X190785000Y-110705000D01*
X190785000Y-111205000D01*
G36*
X190285000Y-111205000D02*
G01*
X190785000Y-111205000D01*
X190785000Y-110705000D01*
X190285000Y-110705000D01*
X190285000Y-111205000D01*
X190285000Y-111205000D01*
G37*
X190285000Y-111205000D02*
X190785000Y-111205000D01*
X190785000Y-110705000D01*
X190285000Y-110705000D01*
X190285000Y-111205000D01*
G36*
X189785000Y-111205000D02*
G01*
X190285000Y-111205000D01*
X190285000Y-110705000D01*
X189785000Y-110705000D01*
X189785000Y-111205000D01*
X189785000Y-111205000D01*
G37*
X189785000Y-111205000D02*
X190285000Y-111205000D01*
X190285000Y-110705000D01*
X189785000Y-110705000D01*
X189785000Y-111205000D01*
G36*
X189285000Y-111205000D02*
G01*
X189785000Y-111205000D01*
X189785000Y-110705000D01*
X189285000Y-110705000D01*
X189285000Y-111205000D01*
X189285000Y-111205000D01*
G37*
X189285000Y-111205000D02*
X189785000Y-111205000D01*
X189785000Y-110705000D01*
X189285000Y-110705000D01*
X189285000Y-111205000D01*
G36*
X188785000Y-111205000D02*
G01*
X189285000Y-111205000D01*
X189285000Y-110705000D01*
X188785000Y-110705000D01*
X188785000Y-111205000D01*
X188785000Y-111205000D01*
G37*
X188785000Y-111205000D02*
X189285000Y-111205000D01*
X189285000Y-110705000D01*
X188785000Y-110705000D01*
X188785000Y-111205000D01*
G36*
X187785000Y-111205000D02*
G01*
X188285000Y-111205000D01*
X188285000Y-110705000D01*
X187785000Y-110705000D01*
X187785000Y-111205000D01*
X187785000Y-111205000D01*
G37*
X187785000Y-111205000D02*
X188285000Y-111205000D01*
X188285000Y-110705000D01*
X187785000Y-110705000D01*
X187785000Y-111205000D01*
G36*
X187285000Y-111205000D02*
G01*
X187785000Y-111205000D01*
X187785000Y-110705000D01*
X187285000Y-110705000D01*
X187285000Y-111205000D01*
X187285000Y-111205000D01*
G37*
X187285000Y-111205000D02*
X187785000Y-111205000D01*
X187785000Y-110705000D01*
X187285000Y-110705000D01*
X187285000Y-111205000D01*
G36*
X186785000Y-111205000D02*
G01*
X187285000Y-111205000D01*
X187285000Y-110705000D01*
X186785000Y-110705000D01*
X186785000Y-111205000D01*
X186785000Y-111205000D01*
G37*
X186785000Y-111205000D02*
X187285000Y-111205000D01*
X187285000Y-110705000D01*
X186785000Y-110705000D01*
X186785000Y-111205000D01*
G36*
X185785000Y-111205000D02*
G01*
X186285000Y-111205000D01*
X186285000Y-110705000D01*
X185785000Y-110705000D01*
X185785000Y-111205000D01*
X185785000Y-111205000D01*
G37*
X185785000Y-111205000D02*
X186285000Y-111205000D01*
X186285000Y-110705000D01*
X185785000Y-110705000D01*
X185785000Y-111205000D01*
G36*
X196285000Y-111705000D02*
G01*
X196785000Y-111705000D01*
X196785000Y-111205000D01*
X196285000Y-111205000D01*
X196285000Y-111705000D01*
X196285000Y-111705000D01*
G37*
X196285000Y-111705000D02*
X196785000Y-111705000D01*
X196785000Y-111205000D01*
X196285000Y-111205000D01*
X196285000Y-111705000D01*
G36*
X194285000Y-111705000D02*
G01*
X194785000Y-111705000D01*
X194785000Y-111205000D01*
X194285000Y-111205000D01*
X194285000Y-111705000D01*
X194285000Y-111705000D01*
G37*
X194285000Y-111705000D02*
X194785000Y-111705000D01*
X194785000Y-111205000D01*
X194285000Y-111205000D01*
X194285000Y-111705000D01*
G36*
X192785000Y-111705000D02*
G01*
X193285000Y-111705000D01*
X193285000Y-111205000D01*
X192785000Y-111205000D01*
X192785000Y-111705000D01*
X192785000Y-111705000D01*
G37*
X192785000Y-111705000D02*
X193285000Y-111705000D01*
X193285000Y-111205000D01*
X192785000Y-111205000D01*
X192785000Y-111705000D01*
G36*
X191285000Y-111705000D02*
G01*
X191785000Y-111705000D01*
X191785000Y-111205000D01*
X191285000Y-111205000D01*
X191285000Y-111705000D01*
X191285000Y-111705000D01*
G37*
X191285000Y-111705000D02*
X191785000Y-111705000D01*
X191785000Y-111205000D01*
X191285000Y-111205000D01*
X191285000Y-111705000D01*
G36*
X190785000Y-111705000D02*
G01*
X191285000Y-111705000D01*
X191285000Y-111205000D01*
X190785000Y-111205000D01*
X190785000Y-111705000D01*
X190785000Y-111705000D01*
G37*
X190785000Y-111705000D02*
X191285000Y-111705000D01*
X191285000Y-111205000D01*
X190785000Y-111205000D01*
X190785000Y-111705000D01*
G36*
X189785000Y-111705000D02*
G01*
X190285000Y-111705000D01*
X190285000Y-111205000D01*
X189785000Y-111205000D01*
X189785000Y-111705000D01*
X189785000Y-111705000D01*
G37*
X189785000Y-111705000D02*
X190285000Y-111705000D01*
X190285000Y-111205000D01*
X189785000Y-111205000D01*
X189785000Y-111705000D01*
G36*
X188285000Y-111705000D02*
G01*
X188785000Y-111705000D01*
X188785000Y-111205000D01*
X188285000Y-111205000D01*
X188285000Y-111705000D01*
X188285000Y-111705000D01*
G37*
X188285000Y-111705000D02*
X188785000Y-111705000D01*
X188785000Y-111205000D01*
X188285000Y-111205000D01*
X188285000Y-111705000D01*
G36*
X196785000Y-112205000D02*
G01*
X197285000Y-112205000D01*
X197285000Y-111705000D01*
X196785000Y-111705000D01*
X196785000Y-112205000D01*
X196785000Y-112205000D01*
G37*
X196785000Y-112205000D02*
X197285000Y-112205000D01*
X197285000Y-111705000D01*
X196785000Y-111705000D01*
X196785000Y-112205000D01*
G36*
X195785000Y-112205000D02*
G01*
X196285000Y-112205000D01*
X196285000Y-111705000D01*
X195785000Y-111705000D01*
X195785000Y-112205000D01*
X195785000Y-112205000D01*
G37*
X195785000Y-112205000D02*
X196285000Y-112205000D01*
X196285000Y-111705000D01*
X195785000Y-111705000D01*
X195785000Y-112205000D01*
G36*
X195285000Y-112205000D02*
G01*
X195785000Y-112205000D01*
X195785000Y-111705000D01*
X195285000Y-111705000D01*
X195285000Y-112205000D01*
X195285000Y-112205000D01*
G37*
X195285000Y-112205000D02*
X195785000Y-112205000D01*
X195785000Y-111705000D01*
X195285000Y-111705000D01*
X195285000Y-112205000D01*
G36*
X194785000Y-112205000D02*
G01*
X195285000Y-112205000D01*
X195285000Y-111705000D01*
X194785000Y-111705000D01*
X194785000Y-112205000D01*
X194785000Y-112205000D01*
G37*
X194785000Y-112205000D02*
X195285000Y-112205000D01*
X195285000Y-111705000D01*
X194785000Y-111705000D01*
X194785000Y-112205000D01*
G36*
X193285000Y-112205000D02*
G01*
X193785000Y-112205000D01*
X193785000Y-111705000D01*
X193285000Y-111705000D01*
X193285000Y-112205000D01*
X193285000Y-112205000D01*
G37*
X193285000Y-112205000D02*
X193785000Y-112205000D01*
X193785000Y-111705000D01*
X193285000Y-111705000D01*
X193285000Y-112205000D01*
G36*
X191785000Y-112205000D02*
G01*
X192285000Y-112205000D01*
X192285000Y-111705000D01*
X191785000Y-111705000D01*
X191785000Y-112205000D01*
X191785000Y-112205000D01*
G37*
X191785000Y-112205000D02*
X192285000Y-112205000D01*
X192285000Y-111705000D01*
X191785000Y-111705000D01*
X191785000Y-112205000D01*
G36*
X190285000Y-112205000D02*
G01*
X190785000Y-112205000D01*
X190785000Y-111705000D01*
X190285000Y-111705000D01*
X190285000Y-112205000D01*
X190285000Y-112205000D01*
G37*
X190285000Y-112205000D02*
X190785000Y-112205000D01*
X190785000Y-111705000D01*
X190285000Y-111705000D01*
X190285000Y-112205000D01*
G36*
X189785000Y-112205000D02*
G01*
X190285000Y-112205000D01*
X190285000Y-111705000D01*
X189785000Y-111705000D01*
X189785000Y-112205000D01*
X189785000Y-112205000D01*
G37*
X189785000Y-112205000D02*
X190285000Y-112205000D01*
X190285000Y-111705000D01*
X189785000Y-111705000D01*
X189785000Y-112205000D01*
G36*
X188785000Y-112205000D02*
G01*
X189285000Y-112205000D01*
X189285000Y-111705000D01*
X188785000Y-111705000D01*
X188785000Y-112205000D01*
X188785000Y-112205000D01*
G37*
X188785000Y-112205000D02*
X189285000Y-112205000D01*
X189285000Y-111705000D01*
X188785000Y-111705000D01*
X188785000Y-112205000D01*
G36*
X187785000Y-112205000D02*
G01*
X188285000Y-112205000D01*
X188285000Y-111705000D01*
X187785000Y-111705000D01*
X187785000Y-112205000D01*
X187785000Y-112205000D01*
G37*
X187785000Y-112205000D02*
X188285000Y-112205000D01*
X188285000Y-111705000D01*
X187785000Y-111705000D01*
X187785000Y-112205000D01*
G36*
X186285000Y-112205000D02*
G01*
X186785000Y-112205000D01*
X186785000Y-111705000D01*
X186285000Y-111705000D01*
X186285000Y-112205000D01*
X186285000Y-112205000D01*
G37*
X186285000Y-112205000D02*
X186785000Y-112205000D01*
X186785000Y-111705000D01*
X186285000Y-111705000D01*
X186285000Y-112205000D01*
G36*
X185785000Y-112205000D02*
G01*
X186285000Y-112205000D01*
X186285000Y-111705000D01*
X185785000Y-111705000D01*
X185785000Y-112205000D01*
X185785000Y-112205000D01*
G37*
X185785000Y-112205000D02*
X186285000Y-112205000D01*
X186285000Y-111705000D01*
X185785000Y-111705000D01*
X185785000Y-112205000D01*
G36*
X185285000Y-112205000D02*
G01*
X185785000Y-112205000D01*
X185785000Y-111705000D01*
X185285000Y-111705000D01*
X185285000Y-112205000D01*
X185285000Y-112205000D01*
G37*
X185285000Y-112205000D02*
X185785000Y-112205000D01*
X185785000Y-111705000D01*
X185285000Y-111705000D01*
X185285000Y-112205000D01*
G36*
X184785000Y-112205000D02*
G01*
X185285000Y-112205000D01*
X185285000Y-111705000D01*
X184785000Y-111705000D01*
X184785000Y-112205000D01*
X184785000Y-112205000D01*
G37*
X184785000Y-112205000D02*
X185285000Y-112205000D01*
X185285000Y-111705000D01*
X184785000Y-111705000D01*
X184785000Y-112205000D01*
G36*
X192285000Y-112705000D02*
G01*
X192785000Y-112705000D01*
X192785000Y-112205000D01*
X192285000Y-112205000D01*
X192285000Y-112705000D01*
X192285000Y-112705000D01*
G37*
X192285000Y-112705000D02*
X192785000Y-112705000D01*
X192785000Y-112205000D01*
X192285000Y-112205000D01*
X192285000Y-112705000D01*
G36*
X191785000Y-112705000D02*
G01*
X192285000Y-112705000D01*
X192285000Y-112205000D01*
X191785000Y-112205000D01*
X191785000Y-112705000D01*
X191785000Y-112705000D01*
G37*
X191785000Y-112705000D02*
X192285000Y-112705000D01*
X192285000Y-112205000D01*
X191785000Y-112205000D01*
X191785000Y-112705000D01*
G36*
X190785000Y-112705000D02*
G01*
X191285000Y-112705000D01*
X191285000Y-112205000D01*
X190785000Y-112205000D01*
X190785000Y-112705000D01*
X190785000Y-112705000D01*
G37*
X190785000Y-112705000D02*
X191285000Y-112705000D01*
X191285000Y-112205000D01*
X190785000Y-112205000D01*
X190785000Y-112705000D01*
G36*
X189785000Y-112705000D02*
G01*
X190285000Y-112705000D01*
X190285000Y-112205000D01*
X189785000Y-112205000D01*
X189785000Y-112705000D01*
X189785000Y-112705000D01*
G37*
X189785000Y-112705000D02*
X190285000Y-112705000D01*
X190285000Y-112205000D01*
X189785000Y-112205000D01*
X189785000Y-112705000D01*
G36*
X196785000Y-113205000D02*
G01*
X197285000Y-113205000D01*
X197285000Y-112705000D01*
X196785000Y-112705000D01*
X196785000Y-113205000D01*
X196785000Y-113205000D01*
G37*
X196785000Y-113205000D02*
X197285000Y-113205000D01*
X197285000Y-112705000D01*
X196785000Y-112705000D01*
X196785000Y-113205000D01*
G36*
X196285000Y-113205000D02*
G01*
X196785000Y-113205000D01*
X196785000Y-112705000D01*
X196285000Y-112705000D01*
X196285000Y-113205000D01*
X196285000Y-113205000D01*
G37*
X196285000Y-113205000D02*
X196785000Y-113205000D01*
X196785000Y-112705000D01*
X196285000Y-112705000D01*
X196285000Y-113205000D01*
G36*
X195785000Y-113205000D02*
G01*
X196285000Y-113205000D01*
X196285000Y-112705000D01*
X195785000Y-112705000D01*
X195785000Y-113205000D01*
X195785000Y-113205000D01*
G37*
X195785000Y-113205000D02*
X196285000Y-113205000D01*
X196285000Y-112705000D01*
X195785000Y-112705000D01*
X195785000Y-113205000D01*
G36*
X195285000Y-113205000D02*
G01*
X195785000Y-113205000D01*
X195785000Y-112705000D01*
X195285000Y-112705000D01*
X195285000Y-113205000D01*
X195285000Y-113205000D01*
G37*
X195285000Y-113205000D02*
X195785000Y-113205000D01*
X195785000Y-112705000D01*
X195285000Y-112705000D01*
X195285000Y-113205000D01*
G36*
X194785000Y-113205000D02*
G01*
X195285000Y-113205000D01*
X195285000Y-112705000D01*
X194785000Y-112705000D01*
X194785000Y-113205000D01*
X194785000Y-113205000D01*
G37*
X194785000Y-113205000D02*
X195285000Y-113205000D01*
X195285000Y-112705000D01*
X194785000Y-112705000D01*
X194785000Y-113205000D01*
G36*
X194285000Y-113205000D02*
G01*
X194785000Y-113205000D01*
X194785000Y-112705000D01*
X194285000Y-112705000D01*
X194285000Y-113205000D01*
X194285000Y-113205000D01*
G37*
X194285000Y-113205000D02*
X194785000Y-113205000D01*
X194785000Y-112705000D01*
X194285000Y-112705000D01*
X194285000Y-113205000D01*
G36*
X193785000Y-113205000D02*
G01*
X194285000Y-113205000D01*
X194285000Y-112705000D01*
X193785000Y-112705000D01*
X193785000Y-113205000D01*
X193785000Y-113205000D01*
G37*
X193785000Y-113205000D02*
X194285000Y-113205000D01*
X194285000Y-112705000D01*
X193785000Y-112705000D01*
X193785000Y-113205000D01*
G36*
X192785000Y-113205000D02*
G01*
X193285000Y-113205000D01*
X193285000Y-112705000D01*
X192785000Y-112705000D01*
X192785000Y-113205000D01*
X192785000Y-113205000D01*
G37*
X192785000Y-113205000D02*
X193285000Y-113205000D01*
X193285000Y-112705000D01*
X192785000Y-112705000D01*
X192785000Y-113205000D01*
G36*
X191785000Y-113205000D02*
G01*
X192285000Y-113205000D01*
X192285000Y-112705000D01*
X191785000Y-112705000D01*
X191785000Y-113205000D01*
X191785000Y-113205000D01*
G37*
X191785000Y-113205000D02*
X192285000Y-113205000D01*
X192285000Y-112705000D01*
X191785000Y-112705000D01*
X191785000Y-113205000D01*
G36*
X190785000Y-113205000D02*
G01*
X191285000Y-113205000D01*
X191285000Y-112705000D01*
X190785000Y-112705000D01*
X190785000Y-113205000D01*
X190785000Y-113205000D01*
G37*
X190785000Y-113205000D02*
X191285000Y-113205000D01*
X191285000Y-112705000D01*
X190785000Y-112705000D01*
X190785000Y-113205000D01*
G36*
X189785000Y-113205000D02*
G01*
X190285000Y-113205000D01*
X190285000Y-112705000D01*
X189785000Y-112705000D01*
X189785000Y-113205000D01*
X189785000Y-113205000D01*
G37*
X189785000Y-113205000D02*
X190285000Y-113205000D01*
X190285000Y-112705000D01*
X189785000Y-112705000D01*
X189785000Y-113205000D01*
G36*
X188785000Y-113205000D02*
G01*
X189285000Y-113205000D01*
X189285000Y-112705000D01*
X188785000Y-112705000D01*
X188785000Y-113205000D01*
X188785000Y-113205000D01*
G37*
X188785000Y-113205000D02*
X189285000Y-113205000D01*
X189285000Y-112705000D01*
X188785000Y-112705000D01*
X188785000Y-113205000D01*
G36*
X187785000Y-113205000D02*
G01*
X188285000Y-113205000D01*
X188285000Y-112705000D01*
X187785000Y-112705000D01*
X187785000Y-113205000D01*
X187785000Y-113205000D01*
G37*
X187785000Y-113205000D02*
X188285000Y-113205000D01*
X188285000Y-112705000D01*
X187785000Y-112705000D01*
X187785000Y-113205000D01*
G36*
X187285000Y-113205000D02*
G01*
X187785000Y-113205000D01*
X187785000Y-112705000D01*
X187285000Y-112705000D01*
X187285000Y-113205000D01*
X187285000Y-113205000D01*
G37*
X187285000Y-113205000D02*
X187785000Y-113205000D01*
X187785000Y-112705000D01*
X187285000Y-112705000D01*
X187285000Y-113205000D01*
G36*
X186785000Y-113205000D02*
G01*
X187285000Y-113205000D01*
X187285000Y-112705000D01*
X186785000Y-112705000D01*
X186785000Y-113205000D01*
X186785000Y-113205000D01*
G37*
X186785000Y-113205000D02*
X187285000Y-113205000D01*
X187285000Y-112705000D01*
X186785000Y-112705000D01*
X186785000Y-113205000D01*
G36*
X186285000Y-113205000D02*
G01*
X186785000Y-113205000D01*
X186785000Y-112705000D01*
X186285000Y-112705000D01*
X186285000Y-113205000D01*
X186285000Y-113205000D01*
G37*
X186285000Y-113205000D02*
X186785000Y-113205000D01*
X186785000Y-112705000D01*
X186285000Y-112705000D01*
X186285000Y-113205000D01*
G36*
X185785000Y-113205000D02*
G01*
X186285000Y-113205000D01*
X186285000Y-112705000D01*
X185785000Y-112705000D01*
X185785000Y-113205000D01*
X185785000Y-113205000D01*
G37*
X185785000Y-113205000D02*
X186285000Y-113205000D01*
X186285000Y-112705000D01*
X185785000Y-112705000D01*
X185785000Y-113205000D01*
G36*
X185285000Y-113205000D02*
G01*
X185785000Y-113205000D01*
X185785000Y-112705000D01*
X185285000Y-112705000D01*
X185285000Y-113205000D01*
X185285000Y-113205000D01*
G37*
X185285000Y-113205000D02*
X185785000Y-113205000D01*
X185785000Y-112705000D01*
X185285000Y-112705000D01*
X185285000Y-113205000D01*
G36*
X184785000Y-113205000D02*
G01*
X185285000Y-113205000D01*
X185285000Y-112705000D01*
X184785000Y-112705000D01*
X184785000Y-113205000D01*
X184785000Y-113205000D01*
G37*
X184785000Y-113205000D02*
X185285000Y-113205000D01*
X185285000Y-112705000D01*
X184785000Y-112705000D01*
X184785000Y-113205000D01*
G36*
X196785000Y-113705000D02*
G01*
X197285000Y-113705000D01*
X197285000Y-113205000D01*
X196785000Y-113205000D01*
X196785000Y-113705000D01*
X196785000Y-113705000D01*
G37*
X196785000Y-113705000D02*
X197285000Y-113705000D01*
X197285000Y-113205000D01*
X196785000Y-113205000D01*
X196785000Y-113705000D01*
G36*
X193785000Y-113705000D02*
G01*
X194285000Y-113705000D01*
X194285000Y-113205000D01*
X193785000Y-113205000D01*
X193785000Y-113705000D01*
X193785000Y-113705000D01*
G37*
X193785000Y-113705000D02*
X194285000Y-113705000D01*
X194285000Y-113205000D01*
X193785000Y-113205000D01*
X193785000Y-113705000D01*
G36*
X190285000Y-113705000D02*
G01*
X190785000Y-113705000D01*
X190785000Y-113205000D01*
X190285000Y-113205000D01*
X190285000Y-113705000D01*
X190285000Y-113705000D01*
G37*
X190285000Y-113705000D02*
X190785000Y-113705000D01*
X190785000Y-113205000D01*
X190285000Y-113205000D01*
X190285000Y-113705000D01*
G36*
X189785000Y-113705000D02*
G01*
X190285000Y-113705000D01*
X190285000Y-113205000D01*
X189785000Y-113205000D01*
X189785000Y-113705000D01*
X189785000Y-113705000D01*
G37*
X189785000Y-113705000D02*
X190285000Y-113705000D01*
X190285000Y-113205000D01*
X189785000Y-113205000D01*
X189785000Y-113705000D01*
G36*
X187785000Y-113705000D02*
G01*
X188285000Y-113705000D01*
X188285000Y-113205000D01*
X187785000Y-113205000D01*
X187785000Y-113705000D01*
X187785000Y-113705000D01*
G37*
X187785000Y-113705000D02*
X188285000Y-113705000D01*
X188285000Y-113205000D01*
X187785000Y-113205000D01*
X187785000Y-113705000D01*
G36*
X184785000Y-113705000D02*
G01*
X185285000Y-113705000D01*
X185285000Y-113205000D01*
X184785000Y-113205000D01*
X184785000Y-113705000D01*
X184785000Y-113705000D01*
G37*
X184785000Y-113705000D02*
X185285000Y-113705000D01*
X185285000Y-113205000D01*
X184785000Y-113205000D01*
X184785000Y-113705000D01*
G36*
X196785000Y-114205000D02*
G01*
X197285000Y-114205000D01*
X197285000Y-113705000D01*
X196785000Y-113705000D01*
X196785000Y-114205000D01*
X196785000Y-114205000D01*
G37*
X196785000Y-114205000D02*
X197285000Y-114205000D01*
X197285000Y-113705000D01*
X196785000Y-113705000D01*
X196785000Y-114205000D01*
G36*
X195785000Y-114205000D02*
G01*
X196285000Y-114205000D01*
X196285000Y-113705000D01*
X195785000Y-113705000D01*
X195785000Y-114205000D01*
X195785000Y-114205000D01*
G37*
X195785000Y-114205000D02*
X196285000Y-114205000D01*
X196285000Y-113705000D01*
X195785000Y-113705000D01*
X195785000Y-114205000D01*
G36*
X195285000Y-114205000D02*
G01*
X195785000Y-114205000D01*
X195785000Y-113705000D01*
X195285000Y-113705000D01*
X195285000Y-114205000D01*
X195285000Y-114205000D01*
G37*
X195285000Y-114205000D02*
X195785000Y-114205000D01*
X195785000Y-113705000D01*
X195285000Y-113705000D01*
X195285000Y-114205000D01*
G36*
X194785000Y-114205000D02*
G01*
X195285000Y-114205000D01*
X195285000Y-113705000D01*
X194785000Y-113705000D01*
X194785000Y-114205000D01*
X194785000Y-114205000D01*
G37*
X194785000Y-114205000D02*
X195285000Y-114205000D01*
X195285000Y-113705000D01*
X194785000Y-113705000D01*
X194785000Y-114205000D01*
G36*
X193785000Y-114205000D02*
G01*
X194285000Y-114205000D01*
X194285000Y-113705000D01*
X193785000Y-113705000D01*
X193785000Y-114205000D01*
X193785000Y-114205000D01*
G37*
X193785000Y-114205000D02*
X194285000Y-114205000D01*
X194285000Y-113705000D01*
X193785000Y-113705000D01*
X193785000Y-114205000D01*
G36*
X192785000Y-114205000D02*
G01*
X193285000Y-114205000D01*
X193285000Y-113705000D01*
X192785000Y-113705000D01*
X192785000Y-114205000D01*
X192785000Y-114205000D01*
G37*
X192785000Y-114205000D02*
X193285000Y-114205000D01*
X193285000Y-113705000D01*
X192785000Y-113705000D01*
X192785000Y-114205000D01*
G36*
X192285000Y-114205000D02*
G01*
X192785000Y-114205000D01*
X192785000Y-113705000D01*
X192285000Y-113705000D01*
X192285000Y-114205000D01*
X192285000Y-114205000D01*
G37*
X192285000Y-114205000D02*
X192785000Y-114205000D01*
X192785000Y-113705000D01*
X192285000Y-113705000D01*
X192285000Y-114205000D01*
G36*
X191785000Y-114205000D02*
G01*
X192285000Y-114205000D01*
X192285000Y-113705000D01*
X191785000Y-113705000D01*
X191785000Y-114205000D01*
X191785000Y-114205000D01*
G37*
X191785000Y-114205000D02*
X192285000Y-114205000D01*
X192285000Y-113705000D01*
X191785000Y-113705000D01*
X191785000Y-114205000D01*
G36*
X190785000Y-114205000D02*
G01*
X191285000Y-114205000D01*
X191285000Y-113705000D01*
X190785000Y-113705000D01*
X190785000Y-114205000D01*
X190785000Y-114205000D01*
G37*
X190785000Y-114205000D02*
X191285000Y-114205000D01*
X191285000Y-113705000D01*
X190785000Y-113705000D01*
X190785000Y-114205000D01*
G36*
X190285000Y-114205000D02*
G01*
X190785000Y-114205000D01*
X190785000Y-113705000D01*
X190285000Y-113705000D01*
X190285000Y-114205000D01*
X190285000Y-114205000D01*
G37*
X190285000Y-114205000D02*
X190785000Y-114205000D01*
X190785000Y-113705000D01*
X190285000Y-113705000D01*
X190285000Y-114205000D01*
G36*
X188785000Y-114205000D02*
G01*
X189285000Y-114205000D01*
X189285000Y-113705000D01*
X188785000Y-113705000D01*
X188785000Y-114205000D01*
X188785000Y-114205000D01*
G37*
X188785000Y-114205000D02*
X189285000Y-114205000D01*
X189285000Y-113705000D01*
X188785000Y-113705000D01*
X188785000Y-114205000D01*
G36*
X187785000Y-114205000D02*
G01*
X188285000Y-114205000D01*
X188285000Y-113705000D01*
X187785000Y-113705000D01*
X187785000Y-114205000D01*
X187785000Y-114205000D01*
G37*
X187785000Y-114205000D02*
X188285000Y-114205000D01*
X188285000Y-113705000D01*
X187785000Y-113705000D01*
X187785000Y-114205000D01*
G36*
X186785000Y-114205000D02*
G01*
X187285000Y-114205000D01*
X187285000Y-113705000D01*
X186785000Y-113705000D01*
X186785000Y-114205000D01*
X186785000Y-114205000D01*
G37*
X186785000Y-114205000D02*
X187285000Y-114205000D01*
X187285000Y-113705000D01*
X186785000Y-113705000D01*
X186785000Y-114205000D01*
G36*
X186285000Y-114205000D02*
G01*
X186785000Y-114205000D01*
X186785000Y-113705000D01*
X186285000Y-113705000D01*
X186285000Y-114205000D01*
X186285000Y-114205000D01*
G37*
X186285000Y-114205000D02*
X186785000Y-114205000D01*
X186785000Y-113705000D01*
X186285000Y-113705000D01*
X186285000Y-114205000D01*
G36*
X185785000Y-114205000D02*
G01*
X186285000Y-114205000D01*
X186285000Y-113705000D01*
X185785000Y-113705000D01*
X185785000Y-114205000D01*
X185785000Y-114205000D01*
G37*
X185785000Y-114205000D02*
X186285000Y-114205000D01*
X186285000Y-113705000D01*
X185785000Y-113705000D01*
X185785000Y-114205000D01*
G36*
X184785000Y-114205000D02*
G01*
X185285000Y-114205000D01*
X185285000Y-113705000D01*
X184785000Y-113705000D01*
X184785000Y-114205000D01*
X184785000Y-114205000D01*
G37*
X184785000Y-114205000D02*
X185285000Y-114205000D01*
X185285000Y-113705000D01*
X184785000Y-113705000D01*
X184785000Y-114205000D01*
G36*
X196785000Y-114705000D02*
G01*
X197285000Y-114705000D01*
X197285000Y-114205000D01*
X196785000Y-114205000D01*
X196785000Y-114705000D01*
X196785000Y-114705000D01*
G37*
X196785000Y-114705000D02*
X197285000Y-114705000D01*
X197285000Y-114205000D01*
X196785000Y-114205000D01*
X196785000Y-114705000D01*
G36*
X195785000Y-114705000D02*
G01*
X196285000Y-114705000D01*
X196285000Y-114205000D01*
X195785000Y-114205000D01*
X195785000Y-114705000D01*
X195785000Y-114705000D01*
G37*
X195785000Y-114705000D02*
X196285000Y-114705000D01*
X196285000Y-114205000D01*
X195785000Y-114205000D01*
X195785000Y-114705000D01*
G36*
X195285000Y-114705000D02*
G01*
X195785000Y-114705000D01*
X195785000Y-114205000D01*
X195285000Y-114205000D01*
X195285000Y-114705000D01*
X195285000Y-114705000D01*
G37*
X195285000Y-114705000D02*
X195785000Y-114705000D01*
X195785000Y-114205000D01*
X195285000Y-114205000D01*
X195285000Y-114705000D01*
G36*
X194785000Y-114705000D02*
G01*
X195285000Y-114705000D01*
X195285000Y-114205000D01*
X194785000Y-114205000D01*
X194785000Y-114705000D01*
X194785000Y-114705000D01*
G37*
X194785000Y-114705000D02*
X195285000Y-114705000D01*
X195285000Y-114205000D01*
X194785000Y-114205000D01*
X194785000Y-114705000D01*
G36*
X193785000Y-114705000D02*
G01*
X194285000Y-114705000D01*
X194285000Y-114205000D01*
X193785000Y-114205000D01*
X193785000Y-114705000D01*
X193785000Y-114705000D01*
G37*
X193785000Y-114705000D02*
X194285000Y-114705000D01*
X194285000Y-114205000D01*
X193785000Y-114205000D01*
X193785000Y-114705000D01*
G36*
X192785000Y-114705000D02*
G01*
X193285000Y-114705000D01*
X193285000Y-114205000D01*
X192785000Y-114205000D01*
X192785000Y-114705000D01*
X192785000Y-114705000D01*
G37*
X192785000Y-114705000D02*
X193285000Y-114705000D01*
X193285000Y-114205000D01*
X192785000Y-114205000D01*
X192785000Y-114705000D01*
G36*
X192285000Y-114705000D02*
G01*
X192785000Y-114705000D01*
X192785000Y-114205000D01*
X192285000Y-114205000D01*
X192285000Y-114705000D01*
X192285000Y-114705000D01*
G37*
X192285000Y-114705000D02*
X192785000Y-114705000D01*
X192785000Y-114205000D01*
X192285000Y-114205000D01*
X192285000Y-114705000D01*
G36*
X191785000Y-114705000D02*
G01*
X192285000Y-114705000D01*
X192285000Y-114205000D01*
X191785000Y-114205000D01*
X191785000Y-114705000D01*
X191785000Y-114705000D01*
G37*
X191785000Y-114705000D02*
X192285000Y-114705000D01*
X192285000Y-114205000D01*
X191785000Y-114205000D01*
X191785000Y-114705000D01*
G36*
X191285000Y-114705000D02*
G01*
X191785000Y-114705000D01*
X191785000Y-114205000D01*
X191285000Y-114205000D01*
X191285000Y-114705000D01*
X191285000Y-114705000D01*
G37*
X191285000Y-114705000D02*
X191785000Y-114705000D01*
X191785000Y-114205000D01*
X191285000Y-114205000D01*
X191285000Y-114705000D01*
G36*
X190785000Y-114705000D02*
G01*
X191285000Y-114705000D01*
X191285000Y-114205000D01*
X190785000Y-114205000D01*
X190785000Y-114705000D01*
X190785000Y-114705000D01*
G37*
X190785000Y-114705000D02*
X191285000Y-114705000D01*
X191285000Y-114205000D01*
X190785000Y-114205000D01*
X190785000Y-114705000D01*
G36*
X189785000Y-114705000D02*
G01*
X190285000Y-114705000D01*
X190285000Y-114205000D01*
X189785000Y-114205000D01*
X189785000Y-114705000D01*
X189785000Y-114705000D01*
G37*
X189785000Y-114705000D02*
X190285000Y-114705000D01*
X190285000Y-114205000D01*
X189785000Y-114205000D01*
X189785000Y-114705000D01*
G36*
X189285000Y-114705000D02*
G01*
X189785000Y-114705000D01*
X189785000Y-114205000D01*
X189285000Y-114205000D01*
X189285000Y-114705000D01*
X189285000Y-114705000D01*
G37*
X189285000Y-114705000D02*
X189785000Y-114705000D01*
X189785000Y-114205000D01*
X189285000Y-114205000D01*
X189285000Y-114705000D01*
G36*
X188785000Y-114705000D02*
G01*
X189285000Y-114705000D01*
X189285000Y-114205000D01*
X188785000Y-114205000D01*
X188785000Y-114705000D01*
X188785000Y-114705000D01*
G37*
X188785000Y-114705000D02*
X189285000Y-114705000D01*
X189285000Y-114205000D01*
X188785000Y-114205000D01*
X188785000Y-114705000D01*
G36*
X187785000Y-114705000D02*
G01*
X188285000Y-114705000D01*
X188285000Y-114205000D01*
X187785000Y-114205000D01*
X187785000Y-114705000D01*
X187785000Y-114705000D01*
G37*
X187785000Y-114705000D02*
X188285000Y-114705000D01*
X188285000Y-114205000D01*
X187785000Y-114205000D01*
X187785000Y-114705000D01*
G36*
X186785000Y-114705000D02*
G01*
X187285000Y-114705000D01*
X187285000Y-114205000D01*
X186785000Y-114205000D01*
X186785000Y-114705000D01*
X186785000Y-114705000D01*
G37*
X186785000Y-114705000D02*
X187285000Y-114705000D01*
X187285000Y-114205000D01*
X186785000Y-114205000D01*
X186785000Y-114705000D01*
G36*
X186285000Y-114705000D02*
G01*
X186785000Y-114705000D01*
X186785000Y-114205000D01*
X186285000Y-114205000D01*
X186285000Y-114705000D01*
X186285000Y-114705000D01*
G37*
X186285000Y-114705000D02*
X186785000Y-114705000D01*
X186785000Y-114205000D01*
X186285000Y-114205000D01*
X186285000Y-114705000D01*
G36*
X185785000Y-114705000D02*
G01*
X186285000Y-114705000D01*
X186285000Y-114205000D01*
X185785000Y-114205000D01*
X185785000Y-114705000D01*
X185785000Y-114705000D01*
G37*
X185785000Y-114705000D02*
X186285000Y-114705000D01*
X186285000Y-114205000D01*
X185785000Y-114205000D01*
X185785000Y-114705000D01*
G36*
X184785000Y-114705000D02*
G01*
X185285000Y-114705000D01*
X185285000Y-114205000D01*
X184785000Y-114205000D01*
X184785000Y-114705000D01*
X184785000Y-114705000D01*
G37*
X184785000Y-114705000D02*
X185285000Y-114705000D01*
X185285000Y-114205000D01*
X184785000Y-114205000D01*
X184785000Y-114705000D01*
G36*
X196785000Y-115205000D02*
G01*
X197285000Y-115205000D01*
X197285000Y-114705000D01*
X196785000Y-114705000D01*
X196785000Y-115205000D01*
X196785000Y-115205000D01*
G37*
X196785000Y-115205000D02*
X197285000Y-115205000D01*
X197285000Y-114705000D01*
X196785000Y-114705000D01*
X196785000Y-115205000D01*
G36*
X195785000Y-115205000D02*
G01*
X196285000Y-115205000D01*
X196285000Y-114705000D01*
X195785000Y-114705000D01*
X195785000Y-115205000D01*
X195785000Y-115205000D01*
G37*
X195785000Y-115205000D02*
X196285000Y-115205000D01*
X196285000Y-114705000D01*
X195785000Y-114705000D01*
X195785000Y-115205000D01*
G36*
X195285000Y-115205000D02*
G01*
X195785000Y-115205000D01*
X195785000Y-114705000D01*
X195285000Y-114705000D01*
X195285000Y-115205000D01*
X195285000Y-115205000D01*
G37*
X195285000Y-115205000D02*
X195785000Y-115205000D01*
X195785000Y-114705000D01*
X195285000Y-114705000D01*
X195285000Y-115205000D01*
G36*
X194785000Y-115205000D02*
G01*
X195285000Y-115205000D01*
X195285000Y-114705000D01*
X194785000Y-114705000D01*
X194785000Y-115205000D01*
X194785000Y-115205000D01*
G37*
X194785000Y-115205000D02*
X195285000Y-115205000D01*
X195285000Y-114705000D01*
X194785000Y-114705000D01*
X194785000Y-115205000D01*
G36*
X193785000Y-115205000D02*
G01*
X194285000Y-115205000D01*
X194285000Y-114705000D01*
X193785000Y-114705000D01*
X193785000Y-115205000D01*
X193785000Y-115205000D01*
G37*
X193785000Y-115205000D02*
X194285000Y-115205000D01*
X194285000Y-114705000D01*
X193785000Y-114705000D01*
X193785000Y-115205000D01*
G36*
X192785000Y-115205000D02*
G01*
X193285000Y-115205000D01*
X193285000Y-114705000D01*
X192785000Y-114705000D01*
X192785000Y-115205000D01*
X192785000Y-115205000D01*
G37*
X192785000Y-115205000D02*
X193285000Y-115205000D01*
X193285000Y-114705000D01*
X192785000Y-114705000D01*
X192785000Y-115205000D01*
G36*
X192285000Y-115205000D02*
G01*
X192785000Y-115205000D01*
X192785000Y-114705000D01*
X192285000Y-114705000D01*
X192285000Y-115205000D01*
X192285000Y-115205000D01*
G37*
X192285000Y-115205000D02*
X192785000Y-115205000D01*
X192785000Y-114705000D01*
X192285000Y-114705000D01*
X192285000Y-115205000D01*
G36*
X191785000Y-115205000D02*
G01*
X192285000Y-115205000D01*
X192285000Y-114705000D01*
X191785000Y-114705000D01*
X191785000Y-115205000D01*
X191785000Y-115205000D01*
G37*
X191785000Y-115205000D02*
X192285000Y-115205000D01*
X192285000Y-114705000D01*
X191785000Y-114705000D01*
X191785000Y-115205000D01*
G36*
X191285000Y-115205000D02*
G01*
X191785000Y-115205000D01*
X191785000Y-114705000D01*
X191285000Y-114705000D01*
X191285000Y-115205000D01*
X191285000Y-115205000D01*
G37*
X191285000Y-115205000D02*
X191785000Y-115205000D01*
X191785000Y-114705000D01*
X191285000Y-114705000D01*
X191285000Y-115205000D01*
G36*
X189785000Y-115205000D02*
G01*
X190285000Y-115205000D01*
X190285000Y-114705000D01*
X189785000Y-114705000D01*
X189785000Y-115205000D01*
X189785000Y-115205000D01*
G37*
X189785000Y-115205000D02*
X190285000Y-115205000D01*
X190285000Y-114705000D01*
X189785000Y-114705000D01*
X189785000Y-115205000D01*
G36*
X189285000Y-115205000D02*
G01*
X189785000Y-115205000D01*
X189785000Y-114705000D01*
X189285000Y-114705000D01*
X189285000Y-115205000D01*
X189285000Y-115205000D01*
G37*
X189285000Y-115205000D02*
X189785000Y-115205000D01*
X189785000Y-114705000D01*
X189285000Y-114705000D01*
X189285000Y-115205000D01*
G36*
X188785000Y-115205000D02*
G01*
X189285000Y-115205000D01*
X189285000Y-114705000D01*
X188785000Y-114705000D01*
X188785000Y-115205000D01*
X188785000Y-115205000D01*
G37*
X188785000Y-115205000D02*
X189285000Y-115205000D01*
X189285000Y-114705000D01*
X188785000Y-114705000D01*
X188785000Y-115205000D01*
G36*
X187785000Y-115205000D02*
G01*
X188285000Y-115205000D01*
X188285000Y-114705000D01*
X187785000Y-114705000D01*
X187785000Y-115205000D01*
X187785000Y-115205000D01*
G37*
X187785000Y-115205000D02*
X188285000Y-115205000D01*
X188285000Y-114705000D01*
X187785000Y-114705000D01*
X187785000Y-115205000D01*
G36*
X186785000Y-115205000D02*
G01*
X187285000Y-115205000D01*
X187285000Y-114705000D01*
X186785000Y-114705000D01*
X186785000Y-115205000D01*
X186785000Y-115205000D01*
G37*
X186785000Y-115205000D02*
X187285000Y-115205000D01*
X187285000Y-114705000D01*
X186785000Y-114705000D01*
X186785000Y-115205000D01*
G36*
X186285000Y-115205000D02*
G01*
X186785000Y-115205000D01*
X186785000Y-114705000D01*
X186285000Y-114705000D01*
X186285000Y-115205000D01*
X186285000Y-115205000D01*
G37*
X186285000Y-115205000D02*
X186785000Y-115205000D01*
X186785000Y-114705000D01*
X186285000Y-114705000D01*
X186285000Y-115205000D01*
G36*
X185785000Y-115205000D02*
G01*
X186285000Y-115205000D01*
X186285000Y-114705000D01*
X185785000Y-114705000D01*
X185785000Y-115205000D01*
X185785000Y-115205000D01*
G37*
X185785000Y-115205000D02*
X186285000Y-115205000D01*
X186285000Y-114705000D01*
X185785000Y-114705000D01*
X185785000Y-115205000D01*
G36*
X184785000Y-115205000D02*
G01*
X185285000Y-115205000D01*
X185285000Y-114705000D01*
X184785000Y-114705000D01*
X184785000Y-115205000D01*
X184785000Y-115205000D01*
G37*
X184785000Y-115205000D02*
X185285000Y-115205000D01*
X185285000Y-114705000D01*
X184785000Y-114705000D01*
X184785000Y-115205000D01*
G36*
X196785000Y-115705000D02*
G01*
X197285000Y-115705000D01*
X197285000Y-115205000D01*
X196785000Y-115205000D01*
X196785000Y-115705000D01*
X196785000Y-115705000D01*
G37*
X196785000Y-115705000D02*
X197285000Y-115705000D01*
X197285000Y-115205000D01*
X196785000Y-115205000D01*
X196785000Y-115705000D01*
G36*
X193785000Y-115705000D02*
G01*
X194285000Y-115705000D01*
X194285000Y-115205000D01*
X193785000Y-115205000D01*
X193785000Y-115705000D01*
X193785000Y-115705000D01*
G37*
X193785000Y-115705000D02*
X194285000Y-115705000D01*
X194285000Y-115205000D01*
X193785000Y-115205000D01*
X193785000Y-115705000D01*
G36*
X191285000Y-115705000D02*
G01*
X191785000Y-115705000D01*
X191785000Y-115205000D01*
X191285000Y-115205000D01*
X191285000Y-115705000D01*
X191285000Y-115705000D01*
G37*
X191285000Y-115705000D02*
X191785000Y-115705000D01*
X191785000Y-115205000D01*
X191285000Y-115205000D01*
X191285000Y-115705000D01*
G36*
X190785000Y-115705000D02*
G01*
X191285000Y-115705000D01*
X191285000Y-115205000D01*
X190785000Y-115205000D01*
X190785000Y-115705000D01*
X190785000Y-115705000D01*
G37*
X190785000Y-115705000D02*
X191285000Y-115705000D01*
X191285000Y-115205000D01*
X190785000Y-115205000D01*
X190785000Y-115705000D01*
G36*
X190285000Y-115705000D02*
G01*
X190785000Y-115705000D01*
X190785000Y-115205000D01*
X190285000Y-115205000D01*
X190285000Y-115705000D01*
X190285000Y-115705000D01*
G37*
X190285000Y-115705000D02*
X190785000Y-115705000D01*
X190785000Y-115205000D01*
X190285000Y-115205000D01*
X190285000Y-115705000D01*
G36*
X189785000Y-115705000D02*
G01*
X190285000Y-115705000D01*
X190285000Y-115205000D01*
X189785000Y-115205000D01*
X189785000Y-115705000D01*
X189785000Y-115705000D01*
G37*
X189785000Y-115705000D02*
X190285000Y-115705000D01*
X190285000Y-115205000D01*
X189785000Y-115205000D01*
X189785000Y-115705000D01*
G36*
X189285000Y-115705000D02*
G01*
X189785000Y-115705000D01*
X189785000Y-115205000D01*
X189285000Y-115205000D01*
X189285000Y-115705000D01*
X189285000Y-115705000D01*
G37*
X189285000Y-115705000D02*
X189785000Y-115705000D01*
X189785000Y-115205000D01*
X189285000Y-115205000D01*
X189285000Y-115705000D01*
G36*
X187785000Y-115705000D02*
G01*
X188285000Y-115705000D01*
X188285000Y-115205000D01*
X187785000Y-115205000D01*
X187785000Y-115705000D01*
X187785000Y-115705000D01*
G37*
X187785000Y-115705000D02*
X188285000Y-115705000D01*
X188285000Y-115205000D01*
X187785000Y-115205000D01*
X187785000Y-115705000D01*
G36*
X184785000Y-115705000D02*
G01*
X185285000Y-115705000D01*
X185285000Y-115205000D01*
X184785000Y-115205000D01*
X184785000Y-115705000D01*
X184785000Y-115705000D01*
G37*
X184785000Y-115705000D02*
X185285000Y-115705000D01*
X185285000Y-115205000D01*
X184785000Y-115205000D01*
X184785000Y-115705000D01*
G36*
X196785000Y-116205000D02*
G01*
X197285000Y-116205000D01*
X197285000Y-115705000D01*
X196785000Y-115705000D01*
X196785000Y-116205000D01*
X196785000Y-116205000D01*
G37*
X196785000Y-116205000D02*
X197285000Y-116205000D01*
X197285000Y-115705000D01*
X196785000Y-115705000D01*
X196785000Y-116205000D01*
G36*
X196285000Y-116205000D02*
G01*
X196785000Y-116205000D01*
X196785000Y-115705000D01*
X196285000Y-115705000D01*
X196285000Y-116205000D01*
X196285000Y-116205000D01*
G37*
X196285000Y-116205000D02*
X196785000Y-116205000D01*
X196785000Y-115705000D01*
X196285000Y-115705000D01*
X196285000Y-116205000D01*
G36*
X195785000Y-116205000D02*
G01*
X196285000Y-116205000D01*
X196285000Y-115705000D01*
X195785000Y-115705000D01*
X195785000Y-116205000D01*
X195785000Y-116205000D01*
G37*
X195785000Y-116205000D02*
X196285000Y-116205000D01*
X196285000Y-115705000D01*
X195785000Y-115705000D01*
X195785000Y-116205000D01*
G36*
X195285000Y-116205000D02*
G01*
X195785000Y-116205000D01*
X195785000Y-115705000D01*
X195285000Y-115705000D01*
X195285000Y-116205000D01*
X195285000Y-116205000D01*
G37*
X195285000Y-116205000D02*
X195785000Y-116205000D01*
X195785000Y-115705000D01*
X195285000Y-115705000D01*
X195285000Y-116205000D01*
G36*
X194785000Y-116205000D02*
G01*
X195285000Y-116205000D01*
X195285000Y-115705000D01*
X194785000Y-115705000D01*
X194785000Y-116205000D01*
X194785000Y-116205000D01*
G37*
X194785000Y-116205000D02*
X195285000Y-116205000D01*
X195285000Y-115705000D01*
X194785000Y-115705000D01*
X194785000Y-116205000D01*
G36*
X194285000Y-116205000D02*
G01*
X194785000Y-116205000D01*
X194785000Y-115705000D01*
X194285000Y-115705000D01*
X194285000Y-116205000D01*
X194285000Y-116205000D01*
G37*
X194285000Y-116205000D02*
X194785000Y-116205000D01*
X194785000Y-115705000D01*
X194285000Y-115705000D01*
X194285000Y-116205000D01*
G36*
X193785000Y-116205000D02*
G01*
X194285000Y-116205000D01*
X194285000Y-115705000D01*
X193785000Y-115705000D01*
X193785000Y-116205000D01*
X193785000Y-116205000D01*
G37*
X193785000Y-116205000D02*
X194285000Y-116205000D01*
X194285000Y-115705000D01*
X193785000Y-115705000D01*
X193785000Y-116205000D01*
G36*
X192785000Y-116205000D02*
G01*
X193285000Y-116205000D01*
X193285000Y-115705000D01*
X192785000Y-115705000D01*
X192785000Y-116205000D01*
X192785000Y-116205000D01*
G37*
X192785000Y-116205000D02*
X193285000Y-116205000D01*
X193285000Y-115705000D01*
X192785000Y-115705000D01*
X192785000Y-116205000D01*
G36*
X191285000Y-116205000D02*
G01*
X191785000Y-116205000D01*
X191785000Y-115705000D01*
X191285000Y-115705000D01*
X191285000Y-116205000D01*
X191285000Y-116205000D01*
G37*
X191285000Y-116205000D02*
X191785000Y-116205000D01*
X191785000Y-115705000D01*
X191285000Y-115705000D01*
X191285000Y-116205000D01*
G36*
X190785000Y-116205000D02*
G01*
X191285000Y-116205000D01*
X191285000Y-115705000D01*
X190785000Y-115705000D01*
X190785000Y-116205000D01*
X190785000Y-116205000D01*
G37*
X190785000Y-116205000D02*
X191285000Y-116205000D01*
X191285000Y-115705000D01*
X190785000Y-115705000D01*
X190785000Y-116205000D01*
G36*
X189785000Y-116205000D02*
G01*
X190285000Y-116205000D01*
X190285000Y-115705000D01*
X189785000Y-115705000D01*
X189785000Y-116205000D01*
X189785000Y-116205000D01*
G37*
X189785000Y-116205000D02*
X190285000Y-116205000D01*
X190285000Y-115705000D01*
X189785000Y-115705000D01*
X189785000Y-116205000D01*
G36*
X188785000Y-116205000D02*
G01*
X189285000Y-116205000D01*
X189285000Y-115705000D01*
X188785000Y-115705000D01*
X188785000Y-116205000D01*
X188785000Y-116205000D01*
G37*
X188785000Y-116205000D02*
X189285000Y-116205000D01*
X189285000Y-115705000D01*
X188785000Y-115705000D01*
X188785000Y-116205000D01*
G36*
X187785000Y-116205000D02*
G01*
X188285000Y-116205000D01*
X188285000Y-115705000D01*
X187785000Y-115705000D01*
X187785000Y-116205000D01*
X187785000Y-116205000D01*
G37*
X187785000Y-116205000D02*
X188285000Y-116205000D01*
X188285000Y-115705000D01*
X187785000Y-115705000D01*
X187785000Y-116205000D01*
G36*
X187285000Y-116205000D02*
G01*
X187785000Y-116205000D01*
X187785000Y-115705000D01*
X187285000Y-115705000D01*
X187285000Y-116205000D01*
X187285000Y-116205000D01*
G37*
X187285000Y-116205000D02*
X187785000Y-116205000D01*
X187785000Y-115705000D01*
X187285000Y-115705000D01*
X187285000Y-116205000D01*
G36*
X186785000Y-116205000D02*
G01*
X187285000Y-116205000D01*
X187285000Y-115705000D01*
X186785000Y-115705000D01*
X186785000Y-116205000D01*
X186785000Y-116205000D01*
G37*
X186785000Y-116205000D02*
X187285000Y-116205000D01*
X187285000Y-115705000D01*
X186785000Y-115705000D01*
X186785000Y-116205000D01*
G36*
X186285000Y-116205000D02*
G01*
X186785000Y-116205000D01*
X186785000Y-115705000D01*
X186285000Y-115705000D01*
X186285000Y-116205000D01*
X186285000Y-116205000D01*
G37*
X186285000Y-116205000D02*
X186785000Y-116205000D01*
X186785000Y-115705000D01*
X186285000Y-115705000D01*
X186285000Y-116205000D01*
G36*
X185785000Y-116205000D02*
G01*
X186285000Y-116205000D01*
X186285000Y-115705000D01*
X185785000Y-115705000D01*
X185785000Y-116205000D01*
X185785000Y-116205000D01*
G37*
X185785000Y-116205000D02*
X186285000Y-116205000D01*
X186285000Y-115705000D01*
X185785000Y-115705000D01*
X185785000Y-116205000D01*
G36*
X185285000Y-116205000D02*
G01*
X185785000Y-116205000D01*
X185785000Y-115705000D01*
X185285000Y-115705000D01*
X185285000Y-116205000D01*
X185285000Y-116205000D01*
G37*
X185285000Y-116205000D02*
X185785000Y-116205000D01*
X185785000Y-115705000D01*
X185285000Y-115705000D01*
X185285000Y-116205000D01*
G36*
X184785000Y-116205000D02*
G01*
X185285000Y-116205000D01*
X185285000Y-115705000D01*
X184785000Y-115705000D01*
X184785000Y-116205000D01*
X184785000Y-116205000D01*
G37*
X184785000Y-116205000D02*
X185285000Y-116205000D01*
X185285000Y-115705000D01*
X184785000Y-115705000D01*
X184785000Y-116205000D01*
D12*
X147040000Y-112250000D02*
X147040000Y-107040000D01*
X147040000Y-107040000D02*
X150960000Y-107040000D01*
X150960000Y-107040000D02*
X150960000Y-112250000D01*
D13*
X146802380Y-109190476D02*
X145802380Y-109190476D01*
X146516666Y-109523809D01*
X145802380Y-109857142D01*
X146802380Y-109857142D01*
X146802380Y-110857142D02*
X146802380Y-110285714D01*
X146802380Y-110571428D02*
X145802380Y-110571428D01*
X145945238Y-110476190D01*
X146040476Y-110380952D01*
X146088095Y-110285714D01*
M02*
