G04 #@! TF.GenerationSoftware,KiCad,Pcbnew,5.1.4*
G04 #@! TF.CreationDate,2019-09-18T22:14:05+02:00*
G04 #@! TF.ProjectId,crf_bokmassabot,6372665f-626f-46b6-9d61-737361626f74,rev?*
G04 #@! TF.SameCoordinates,Original*
G04 #@! TF.FileFunction,Copper,L2,Bot*
G04 #@! TF.FilePolarity,Positive*
%FSLAX46Y46*%
G04 Gerber Fmt 4.6, Leading zero omitted, Abs format (unit mm)*
G04 Created by KiCad (PCBNEW 5.1.4) date 2019-09-18 22:14:05*
%MOMM*%
%LPD*%
G04 APERTURE LIST*
%ADD10R,1.700000X1.700000*%
%ADD11C,1.800000*%
%ADD12C,0.100000*%
%ADD13C,1.125000*%
%ADD14C,0.800000*%
%ADD15C,0.635000*%
G04 APERTURE END LIST*
D10*
X191000000Y-122000000D03*
X191000000Y-98000000D03*
X202000000Y-110000000D03*
X160000000Y-122000000D03*
X160000000Y-98000000D03*
X171000000Y-110000000D03*
D11*
X200000000Y-119000000D03*
D12*
G36*
X201272792Y-119000000D02*
G01*
X200000000Y-120272792D01*
X198727208Y-119000000D01*
X200000000Y-117727208D01*
X201272792Y-119000000D01*
X201272792Y-119000000D01*
G37*
D11*
X198203949Y-117203949D03*
X183796051Y-117203949D03*
X182000000Y-119000000D03*
D12*
G36*
X182000000Y-120272792D02*
G01*
X180727208Y-119000000D01*
X182000000Y-117727208D01*
X183272792Y-119000000D01*
X182000000Y-120272792D01*
X182000000Y-120272792D01*
G37*
D11*
X200000000Y-101000000D03*
D12*
G36*
X200000000Y-99727208D02*
G01*
X201272792Y-101000000D01*
X200000000Y-102272792D01*
X198727208Y-101000000D01*
X200000000Y-99727208D01*
X200000000Y-99727208D01*
G37*
D11*
X198203949Y-102796051D03*
X183796051Y-102796051D03*
X182000000Y-101000000D03*
D12*
G36*
X180727208Y-101000000D02*
G01*
X182000000Y-99727208D01*
X183272792Y-101000000D01*
X182000000Y-102272792D01*
X180727208Y-101000000D01*
X180727208Y-101000000D01*
G37*
G36*
X150474505Y-107301204D02*
G01*
X150498773Y-107304804D01*
X150522572Y-107310765D01*
X150545671Y-107319030D01*
X150567850Y-107329520D01*
X150588893Y-107342132D01*
X150608599Y-107356747D01*
X150626777Y-107373223D01*
X150643253Y-107391401D01*
X150657868Y-107411107D01*
X150670480Y-107432150D01*
X150680970Y-107454329D01*
X150689235Y-107477428D01*
X150695196Y-107501227D01*
X150698796Y-107525495D01*
X150700000Y-107549999D01*
X150700000Y-108175001D01*
X150698796Y-108199505D01*
X150695196Y-108223773D01*
X150689235Y-108247572D01*
X150680970Y-108270671D01*
X150670480Y-108292850D01*
X150657868Y-108313893D01*
X150643253Y-108333599D01*
X150626777Y-108351777D01*
X150608599Y-108368253D01*
X150588893Y-108382868D01*
X150567850Y-108395480D01*
X150545671Y-108405970D01*
X150522572Y-108414235D01*
X150498773Y-108420196D01*
X150474505Y-108423796D01*
X150450001Y-108425000D01*
X147549999Y-108425000D01*
X147525495Y-108423796D01*
X147501227Y-108420196D01*
X147477428Y-108414235D01*
X147454329Y-108405970D01*
X147432150Y-108395480D01*
X147411107Y-108382868D01*
X147391401Y-108368253D01*
X147373223Y-108351777D01*
X147356747Y-108333599D01*
X147342132Y-108313893D01*
X147329520Y-108292850D01*
X147319030Y-108270671D01*
X147310765Y-108247572D01*
X147304804Y-108223773D01*
X147301204Y-108199505D01*
X147300000Y-108175001D01*
X147300000Y-107549999D01*
X147301204Y-107525495D01*
X147304804Y-107501227D01*
X147310765Y-107477428D01*
X147319030Y-107454329D01*
X147329520Y-107432150D01*
X147342132Y-107411107D01*
X147356747Y-107391401D01*
X147373223Y-107373223D01*
X147391401Y-107356747D01*
X147411107Y-107342132D01*
X147432150Y-107329520D01*
X147454329Y-107319030D01*
X147477428Y-107310765D01*
X147501227Y-107304804D01*
X147525495Y-107301204D01*
X147549999Y-107300000D01*
X150450001Y-107300000D01*
X150474505Y-107301204D01*
X150474505Y-107301204D01*
G37*
D13*
X149000000Y-107862500D03*
D12*
G36*
X150474505Y-111576204D02*
G01*
X150498773Y-111579804D01*
X150522572Y-111585765D01*
X150545671Y-111594030D01*
X150567850Y-111604520D01*
X150588893Y-111617132D01*
X150608599Y-111631747D01*
X150626777Y-111648223D01*
X150643253Y-111666401D01*
X150657868Y-111686107D01*
X150670480Y-111707150D01*
X150680970Y-111729329D01*
X150689235Y-111752428D01*
X150695196Y-111776227D01*
X150698796Y-111800495D01*
X150700000Y-111824999D01*
X150700000Y-112450001D01*
X150698796Y-112474505D01*
X150695196Y-112498773D01*
X150689235Y-112522572D01*
X150680970Y-112545671D01*
X150670480Y-112567850D01*
X150657868Y-112588893D01*
X150643253Y-112608599D01*
X150626777Y-112626777D01*
X150608599Y-112643253D01*
X150588893Y-112657868D01*
X150567850Y-112670480D01*
X150545671Y-112680970D01*
X150522572Y-112689235D01*
X150498773Y-112695196D01*
X150474505Y-112698796D01*
X150450001Y-112700000D01*
X147549999Y-112700000D01*
X147525495Y-112698796D01*
X147501227Y-112695196D01*
X147477428Y-112689235D01*
X147454329Y-112680970D01*
X147432150Y-112670480D01*
X147411107Y-112657868D01*
X147391401Y-112643253D01*
X147373223Y-112626777D01*
X147356747Y-112608599D01*
X147342132Y-112588893D01*
X147329520Y-112567850D01*
X147319030Y-112545671D01*
X147310765Y-112522572D01*
X147304804Y-112498773D01*
X147301204Y-112474505D01*
X147300000Y-112450001D01*
X147300000Y-111824999D01*
X147301204Y-111800495D01*
X147304804Y-111776227D01*
X147310765Y-111752428D01*
X147319030Y-111729329D01*
X147329520Y-111707150D01*
X147342132Y-111686107D01*
X147356747Y-111666401D01*
X147373223Y-111648223D01*
X147391401Y-111631747D01*
X147411107Y-111617132D01*
X147432150Y-111604520D01*
X147454329Y-111594030D01*
X147477428Y-111585765D01*
X147501227Y-111579804D01*
X147525495Y-111576204D01*
X147549999Y-111575000D01*
X150450001Y-111575000D01*
X150474505Y-111576204D01*
X150474505Y-111576204D01*
G37*
D13*
X149000000Y-112137500D03*
D14*
X154305000Y-110109000D03*
D15*
X158862500Y-98000000D02*
X160000000Y-98000000D01*
X149000000Y-107862500D02*
X158862500Y-98000000D01*
X149000000Y-112137500D02*
X152276500Y-112137500D01*
X152276500Y-112137500D02*
X154305000Y-110109000D01*
M02*
